<?xml version="1.0" standalone="no"?>
<!DOCTYPE svg PUBLIC "-//W3C//DTD SVG 1.1//EN" "http://www.w3.org/Graphics/SVG/1.1/DTD/svg11.dtd" >
<svg xmlns="http://www.w3.org/2000/svg" xmlns:xlink="http://www.w3.org/1999/xlink" version="1.1">
<metadata>
Created by FontForge 20161116 at Wed May 22 16:40:22 2013
 By Jimmy Wärting
(c) 2013 The Monotype Corporation. All Rights Reserved.

Hebrew OpenType Layout logic copyright (c) 2003 &#38; 2007, Ralph Hancock &#38; John Hudson. This layout logic for Biblical Hebrew is open source software under the MIT License; see embedded license description for details.
</metadata>
<defs>
<font id="LevenimMT-Bold" horiz-adv-x="0" >
  <font-face 
    font-family="Levenim MT"
    font-weight="700"
    font-stretch="normal"
    units-per-em="2048"
    panose-1="2 1 8 2 6 1 1 1 1 1"
    ascent="1638"
    descent="-410"
    x-height="1088"
    cap-height="1471"
    bbox="-900 -719 2580 1979"
    underline-thickness="150"
    underline-position="-292"
    unicode-range="U+0020-FB4F"
  />
<missing-glyph horiz-adv-x="1024" 
d="M128 0v1934h768v-1934h-768zM256 128h512v1678h-512v-1678z" />
    <glyph glyph-name="uniFB4F" unicode="&#x5d0;&#x200d;&#x5dc;" horiz-adv-x="1288" 
d="M1168 1030q0 -152 -90 -253q-72 -81 -229 -151l299 -486q17 -28 17 -44q0 -22 -40 -50l-55 -38q-39 -27 -66 -27q-31 0 -53 35l-488 784q-105 -66 -105 -185v-343q0 -51 46 -51h85q72 0 72 -67v-101q0 -54 -76 -54h-288q-77 0 -77 71v562q0 235 225 363l-134 212h-119
q-29 0 -50.5 19t-21.5 47v322q0 57 66 57h101q61 0 61 -74v-98q0 -37 19 -44t86 -7l386 -624q125 64 159 123q31 54 31 199q0 42 -4 54q-8 26 -40 26h-111q-49 0 -49 50v131q0 38 55 43q-22 -2 84 -2h234q70 0 70 -90v-309z" />
    <glyph glyph-name=".notdef" horiz-adv-x="1024" 
d="M128 0v1934h768v-1934h-768zM256 128h512v1678h-512v-1678z" />
    <glyph glyph-name="glyph1" 
 />
    <glyph glyph-name="glyph2" horiz-adv-x="1536" 
 />
    <glyph glyph-name="space" unicode=" " horiz-adv-x="683" 
 />
    <glyph glyph-name="exclam" unicode="!" horiz-adv-x="549" 
d="M399 1335l-14 -754q-1 -60 -24.5 -81.5t-84.5 -21.5q-63 0 -85 18q-26 21 -27 85l-12 754q-1 91 78 91h86q85 0 83 -91zM417 184q0 -73 -34 -124q-39 -60 -109 -60t-109 59q-33 52 -33 125q0 74 33 125q39 59 109 59t109 -59q34 -51 34 -125z" />
    <glyph glyph-name="quotedbl" unicode="&#x22;" horiz-adv-x="1067" 
d="M1022 1342q0 -31 -20 -64l-300 -493q-47 -77 -115 -77q-86 0 -86 74q0 14 200 542q26 68 71 88q33 15 116 15q134 0 134 -85zM589 1344q0 -32 -20 -65l-300 -493q-46 -76 -115 -76q-86 0 -86 73q0 15 199 542q26 68 71 88q33 15 116 15q135 0 135 -84z" />
    <glyph glyph-name="numbersign" unicode="#" horiz-adv-x="1336" 
d="M1278 348h-298l-81 -370h-216l82 370h-332l-78 -370h-216l78 370h-158v216h203l57 275h-260v216h301l83 374h215l-82 -374h328l81 374h215l-81 -374h159v-216h-200l-56 -275h256v-216zM863 839h-329l-56 -274h328z" />
    <glyph glyph-name="dollar" unicode="$" horiz-adv-x="1165" 
d="M1077 1235q0 -40 -34 -92q-36 -56 -74 -56q-11 0 -165.5 59.5t-247.5 59.5q-202 0 -202 -159q0 -110 180 -188q314 -137 334 -150q180 -117 180 -320q0 -162 -90 -267t-250 -122q0 -17 1.5 -50.5t1.5 -49.5q0 -122 -109 -122q-78 0 -106 30q-22 23 -22 82q0 14 1.5 49.5
t1.5 56.5q-102 8 -227 52q-162 58 -162 128q0 42 29 93q33 57 72 57q13 0 165 -57t244 -57q197 0 197 159q0 117 -179 195q-166 72 -333 144q-179 112 -179 311q0 170 103 277q98 101 270 126q0 18 -1.5 52t-1.5 49q0 124 114 124q74 0 101 -34q22 -27 22 -89
q0 -14 -1.5 -47.5t-1.5 -51.5q109 -17 217 -60q152 -61 152 -132z" />
    <glyph glyph-name="percent" unicode="%" horiz-adv-x="1645" 
d="M1560 300q0 -133 -92.5 -225.5t-225.5 -92.5t-226 92.5t-93 225.5q0 132 93.5 225t225.5 93t225 -93t93 -225zM1283 1449l-678 -1466h-243l678 1466h243zM721 1131q0 -133 -93 -225.5t-226 -92.5q-132 0 -225 93t-93 225q0 133 92.5 225.5t225.5 92.5q132 0 225.5 -93
t93.5 -225zM1384 300q0 60 -41.5 101t-100.5 41t-101 -41.5t-42 -100.5t42 -101t101 -42t100.5 42t41.5 101zM544 1131q0 59 -41.5 100.5t-100.5 41.5t-100.5 -41.5t-41.5 -100.5t41.5 -100.5t100.5 -41.5t100.5 41.5t41.5 100.5z" />
    <glyph glyph-name="ampersand" unicode="&#x26;" horiz-adv-x="1436" 
d="M1244 0h-607q-243 0 -359 64q-157 86 -157 312q0 276 291 343q-108 28 -176 122q-65 91 -65 204q0 198 142 309q129 101 333 101q213 0 340 -105t127 -173q0 -29 -56 -75.5t-88 -46.5q-21 0 -126.5 84t-197.5 84q-95 0 -154 -51q-61 -54 -61 -148q0 -98 59 -144
q38 -30 118 -45q77 -14 89 -26q17 -18 17 -82q0 -79 -20 -99t-106 -35q-93 -15 -132 -42q-64 -43 -64 -144q0 -127 107 -161q50 -16 214 -16h288v368q-90 0 -117 13q-44 22 -44 100t35 103q27 19 110 19h260v-833z" />
    <glyph glyph-name="quotesingle" unicode="'" horiz-adv-x="640" 
d="M594 1344q0 -32 -20 -65l-300 -493q-46 -76 -115 -76q-86 0 -86 73q0 15 199 542q26 68 71 88q33 15 116 15q135 0 135 -84z" />
    <glyph glyph-name="parenleft" unicode="(" horiz-adv-x="658" 
d="M598 -195q0 -45 -32 -76.5t-78 -31.5q-51 0 -95 51q-17 20 -61 94q-127 215 -176 399q-47 179 -47 434q0 196 25.5 341.5t128.5 366.5q125 269 225 269q46 0 78 -31.5t32 -76.5q0 -11 -87 -191q-93 -191 -106 -234q-52 -164 -52 -444q0 -259 44 -420q15 -56 111 -254
q90 -188 90 -196z" />
    <glyph glyph-name="parenright" unicode=")" horiz-adv-x="658" 
d="M549 675q0 -255 -47 -434q-49 -184 -176 -399q-44 -74 -61 -94q-44 -51 -95 -51q-46 0 -78 31.5t-32 76.5q0 12 88 193q94 194 109 243q48 162 48 434q0 280 -51 444q-14 43 -107 234q-87 177 -87 191q0 45 32 76.5t78 31.5q99 0 225 -270q104 -221 129 -366t25 -341z
" />
    <glyph glyph-name="asterisk" unicode="*" horiz-adv-x="1062" 
d="M977 1101q0 -73 -114 -118q-84 -23 -167 -47l82 -108q68 -94 68 -130q0 -43 -30 -73t-73 -30q-53 0 -126 94l-86 126q-43 -63 -87 -126q-74 -94 -126 -94q-43 0 -73 30.5t-30 73.5q0 34 68 130q40 53 81 107l-166 48q-114 44 -114 117q0 39 28.5 71t67.5 32q48 0 127 -28
q61 -23 121 -45q0 12 -3 60t-3 78q0 185 109 185q108 0 108 -185q0 -31 -3 -78.5t-3 -59.5q60 22 120 45q79 28 126 28q41 0 69.5 -31t28.5 -72z" />
    <glyph glyph-name="plus" unicode="+" horiz-adv-x="1212" 
d="M1140 563h-417v-414h-235v414h-416v236h416v416h235v-416h417v-236z" />
    <glyph glyph-name="comma" unicode="," horiz-adv-x="549" 
d="M422 206q0 -249 -98 -399.5t-140 -150.5l-15 7q-47 52 -100 124q10 24 63 91q40 49 40 107q0 40 -18 117.5t-18 118.5q0 75 32 130q38 68 107 68q147 0 147 -213z" />
    <glyph glyph-name="hyphen" unicode="-" horiz-adv-x="1025" 
d="M940 488h-856v187h856v-187z" />
    <glyph glyph-name="period" unicode="." horiz-adv-x="549" 
d="M417 211q0 -81 -31 -138q-38 -71 -112 -71q-73 0 -111 72q-31 57 -31 137q0 79 31 137q39 71 111 71q75 0 113 -70q30 -56 30 -138z" />
    <glyph glyph-name="slash" unicode="/" horiz-adv-x="1041" 
d="M981 1449l-678 -1466h-243l678 1466h243z" />
    <glyph glyph-name="zero" unicode="0" horiz-adv-x="1213" 
d="M1105 696q0 -716 -495 -716q-502 0 -502 720q0 747 512 747q485 0 485 -751zM845 717q0 513 -239 513q-140 0 -199 -203q-37 -128 -37 -319q0 -513 236 -513q141 0 201 202q38 130 38 320z" />
    <glyph glyph-name="one" unicode="1" horiz-adv-x="1213" 
d="M1086 52q0 -25 -9 -44q-24 -8 -52 -8h-738q-66 0 -66 70q0 12 2 38.5t2 40.5q0 66 58 66h249v924h-304q-64 0 -64 70q0 15 3.5 48.5t3.5 50.5q0 34 64 34q18 0 68 -3.5t78 -3.5q160 0 194 111h191v-1231q67 0 144.5 4.5t92.5 4.5q58 0 72 -31q11 -27 11 -141z" />
    <glyph glyph-name="two" unicode="2" horiz-adv-x="1213" 
d="M1093 294l-37 -294h-955q22 253 204 447l324 276q169 146 169 293q0 98 -55.5 156.5t-152.5 58.5q-112 0 -167 -60q-36 -40 -55 -123q-19 -88 -30 -102q-16 -5 -37 -5h-126q-22 0 -38 9q-7 21 -7 47q0 209 137 332q131 118 341 118q195 0 319 -104q132 -110 132 -302
q0 -189 -146 -346q-51 -56 -290 -239q-174 -135 -214 -243h466l8 90q11 48 59 48h100q58 0 51 -57z" />
    <glyph glyph-name="three" unicode="3" horiz-adv-x="1213" 
d="M1072 394q0 -204 -143 -314q-129 -100 -338 -100q-476 0 -476 450q0 21 7 40q15 9 34 9h130q19 0 35 -9q5 -14 8 -33q17 -124 70 -180q59 -62 181 -62q100 0 163 54q66 58 66 156q0 208 -227 244q-28 4 -42 12q-8 16 -8 162q0 19 9 36q75 22 150 45q79 36 79 151
q0 174 -204 174q-94 0 -147 -46q-28 -25 -58 -85q-22 -46 -44 -46h-129q-49 0 -49 44q0 167 131 264q118 87 290 87q198 0 323 -83q147 -97 147 -286q0 -228 -225 -310q267 -113 267 -374z" />
    <glyph glyph-name="four" unicode="4" horiz-adv-x="1213" 
d="M1142 52q0 -21 -8 -41q-18 -10 -38 -10h-642q-74 0 -74 75q0 12 2 42t2 46q0 35 15 45q11 7 49 7h250v154h-561q-87 0 -87 81q0 14 3 51.5t3 59.5q0 34 39 85l578 760q27 36 68 36h132q47 0 47 -52v-816q36 0 82.5 2t59.5 2q54 0 67 -26.5t13 -130.5q0 -19 -3 -29
q-6 -23 -46 -23h-173v-154q37 0 84 2t59 2q57 0 69 -29q10 -24 10 -139zM702 1122q-55 -84 -406 -547h402q0 53 -2 182q-3 117 -2 183q1 100 8 182z" />
    <glyph glyph-name="five" unicode="5" horiz-adv-x="1213" 
d="M1077 468q0 -224 -135.5 -356t-359.5 -132q-215 0 -340 105q-136 112 -136 323q0 34 54 34h131q21 0 39 -6q6 -10 8 -26q17 -113 65 -162q54 -55 166 -55t181 79q65 75 65 188q0 279 -231 279q-84 0 -169 -58h-165q-23 0 -44 6q-10 10 -10 23q0 142 15 358q13 180 26 359
h750q26 0 47 -8q9 -20 9 -140q0 -20 -2 -33q-7 -32 -58 -32h-543q3 -54 -9 -164.5t-9 -164.5q103 64 215 64q206 0 326 -140q114 -132 114 -341z" />
    <glyph glyph-name="six" unicode="6" horiz-adv-x="1213" 
d="M1123 460q0 -222 -128.5 -351t-350.5 -129q-515 0 -515 712q0 314 111 509q138 246 428 246q168 0 279 -69q133 -82 133 -240q0 -35 -49 -35h-148q-29 0 -49 33q-29 49 -46 63q-41 33 -120 33q-133 0 -207 -124q-58 -100 -65 -246q117 93 280 93q207 0 330 -146
q117 -138 117 -349zM862 466q0 114 -57 188q-63 82 -174 82q-110 0 -172 -82q-56 -74 -56 -188q0 -109 59 -185q64 -83 170 -83q108 0 172 82q58 75 58 186z" />
    <glyph glyph-name="seven" unicode="7" horiz-adv-x="1213" 
d="M1052 1228l-377 -1182q-15 -46 -76 -46h-148q-46 0 -46 29q0 28 189 566q110 310 219 619h-443q-3 -44 -18 -128q-14 -9 -30 -9h-116q-48 0 -48 35q0 17 29 315h865v-199z" />
    <glyph glyph-name="eight" unicode="8" horiz-adv-x="1213" 
d="M1115 409q0 -217 -154 -330q-135 -99 -359 -99q-222 0 -357 106q-148 117 -148 333q0 227 239 334q-184 117 -184 334q0 191 150 284q123 76 324 76q183 0 301 -89q130 -100 130 -278q0 -204 -183 -326q241 -102 241 -345zM804 1042q0 187 -200 187q-91 0 -145 -48.5
t-54 -138.5q0 -87 57 -138q54 -50 142 -50q86 0 143 51t57 137zM851 418q0 104 -71 164q-67 57 -173 57q-104 0 -171 -58q-72 -61 -72 -163q0 -107 70 -166q65 -55 174 -55q108 0 173 56q70 59 70 165z" />
    <glyph glyph-name="nine" unicode="9" horiz-adv-x="1213" 
d="M1085 735q0 -313 -111 -509q-139 -246 -428 -246q-169 0 -279 67q-133 82 -133 242q0 35 49 35h148q29 0 49 -33q30 -49 46 -63q41 -33 120 -33q133 0 207 124q58 100 65 246q-117 -93 -280 -93q-207 0 -330 146q-116 137 -116 348q0 222 127 351.5t348 129.5
q518 0 518 -712zM812 960q0 109 -59 185q-65 84 -170 84q-108 0 -172 -82q-58 -75 -58 -187q0 -114 57 -188q62 -81 173 -81q110 0 172 82q57 74 57 187z" />
    <glyph glyph-name="colon" unicode=":" horiz-adv-x="595" 
d="M441 972q0 -80 -30 -137q-38 -71 -112 -71q-73 0 -112 71q-31 57 -31 137q0 79 31 137q39 71 112 71q74 0 112 -71q30 -56 30 -137zM440 211q0 -81 -31 -138q-38 -71 -112 -71q-73 0 -111 72q-31 57 -31 137q0 79 31 137q39 71 111 71q75 0 113 -70q30 -56 30 -138z" />
    <glyph glyph-name="semicolon" unicode=";" horiz-adv-x="595" 
d="M439 974q0 -80 -30 -138q-38 -71 -112 -71q-73 0 -112 71q-31 58 -31 138q0 79 31 137q39 71 112 71q74 0 112 -70q30 -57 30 -138zM441 206q0 -249 -98 -399.5t-140 -150.5l-15 7q-47 52 -100 124q10 24 63 91q40 49 40 107q0 40 -18 117.5t-18 118.5q0 75 32 130
q38 68 107 68q147 0 147 -213z" />
    <glyph glyph-name="less" unicode="&#x3c;" horiz-adv-x="1212" 
d="M1139 134l-1066 442v213l1066 444v-254l-744 -296l744 -295v-254z" />
    <glyph glyph-name="equal" unicode="=" horiz-adv-x="1212" 
d="M1139 795h-1066v235h1066v-235zM1139 338h-1066v235h1066v-235z" />
    <glyph glyph-name="greater" unicode="&#x3e;" horiz-adv-x="1212" 
d="M1139 576l-1066 -442v254l744 295l-744 296v254l1066 -444v-213z" />
    <glyph glyph-name="question" unicode="?" horiz-adv-x="939" 
d="M807 1125q0 -125 -120 -290t-120 -300q0 -43 -22 -57.5t-74 -14.5q-73 0 -97 35q-17 26 -17 100q0 124 114 285t114 231q0 136 -120 136q-93 0 -114 -65q-9 -60 -19 -121q-17 -65 -99 -65q-61 0 -83 29q-18 24 -18 85q0 148 99 234q94 83 244 83q148 0 237 -77
q95 -81 95 -228zM615 184q0 -182 -141 -182q-68 0 -107 59q-34 51 -34 123q0 73 33 124q38 59 108 59q69 0 108 -59q33 -51 33 -124z" />
    <glyph glyph-name="at" unicode="@" horiz-adv-x="1515" 
d="M1507 898q0 -371 -322 -535q-114 -58 -191 -58q-57 0 -93 31q-27 23 -29 76q-88 -97 -214 -97q-153 0 -245 110q-86 103 -86 260q0 192 114 330q122 146 310 146q160 0 247 -131l21 105h196l-99 -583q-10 -59 -10 -70q0 -30 35 -30q54 0 116 70q50 57 76 119
q37 91 37 200q0 334 -275 481q-133 71 -305 71q-378 0 -552 -308q-83 -148 -83 -325q0 -179 81 -324q84 -150 238 -233q151 -82 338 -82q214 0 416 180h191q-96 -119 -171 -179q-94 -75 -219 -114q-112 -35 -233 -35q-212 0 -394 103q-185 104 -289.5 285t-104.5 393
q0 213 102 395q105 186 288 289q180 102 396 102q281 0 491 -178q222 -188 222 -464zM940 759q0 75 -44.5 126t-118.5 51q-88 0 -148 -73q-56 -68 -56 -158q0 -78 43 -127q46 -52 123 -52q88 0 147 74q54 69 54 159z" />
    <glyph glyph-name="A" unicode="A" horiz-adv-x="1515" 
d="M1466 0h-291l-115 303h-600l-120 -303h-291l567 1471h284zM955 576l-195 505l-196 -505h391z" />
    <glyph glyph-name="B" unicode="B" horiz-adv-x="1188" 
d="M1088 429q0 -119 -61.5 -222.5t-167.5 -155.5q-101 -51 -279 -51h-412v1471h231q198 0 294 -26q130 -35 207 -127q81 -95 81 -227q0 -168 -151 -281q258 -121 258 -381zM710 1054q0 150 -190 150h-72v-310h61q201 0 201 160zM813 439q0 205 -307 205h-58v-377h70
q132 0 195 24q100 39 100 148z" />
    <glyph glyph-name="C" unicode="C" horiz-adv-x="1597" 
d="M1520 1212l-196 -187q-200 211 -450 211q-212 0 -356 -143.5t-144 -355.5q0 -304 245 -440q117 -65 260 -65q135 0 245 56q92 48 200 155l190 -198q-152 -148 -289 -212q-152 -70 -350 -70q-343 0 -561.5 216t-218.5 559q0 450 385 666q185 104 399 104q387 0 641 -296z
" />
    <glyph glyph-name="D" unicode="D" horiz-adv-x="1434" 
d="M1336 715q0 -348 -212 -549q-121 -113 -288 -147q-98 -19 -330 -19h-337v1471h332q276 0 424 -57q194 -75 310 -281q101 -179 101 -418zM1053 722q0 479 -510 479h-95v-927h130q163 0 244 30q112 42 176 162q55 104 55 256z" />
    <glyph glyph-name="E" unicode="E" horiz-adv-x="1065" 
d="M972 0h-803v1471h803v-274h-525v-266h525v-269h-525v-387h525v-275z" />
    <glyph glyph-name="F" unicode="F" horiz-adv-x="983" 
d="M902 662h-453v-662h-277v1471h730v-273h-453v-267h453v-269z" />
    <glyph glyph-name="G" unicode="G" horiz-adv-x="1720" 
d="M1631 684q6 -183 -100 -366q-205 -355 -632 -355q-224 0 -401 95q-184 99 -291 288q-105 184 -105 397q0 292 193 508q229 257 596 257q379 0 635 -277l-197 -195q-187 198 -436 198q-213 0 -360 -140q-150 -142 -150 -354q0 -219 155 -365q152 -144 372 -144
q287 0 405 252h-426v263h740z" />
    <glyph glyph-name="H" unicode="H" horiz-adv-x="1393" 
d="M1226 0h-283v645h-492v-645h-284v1471h284v-555h492v555h283v-1471z" />
    <glyph glyph-name="I" unicode="I" horiz-adv-x="573" 
d="M426 0h-278v1471h278v-1471z" />
    <glyph glyph-name="J" unicode="J" horiz-adv-x="983" 
d="M815 495q0 -182 -19 -264q-33 -143 -140 -212q-85 -56 -204 -56q-243 0 -414 213l202 189q113 -128 205 -128q63 0 81 78q8 34 8 127v1029h281v-976z" />
    <glyph glyph-name="K" unicode="K" horiz-adv-x="1270" 
d="M1239 0h-332l-454 653v-653h-283v1471h283v-506l399 506h337l-514 -656z" />
    <glyph glyph-name="L" unicode="L" horiz-adv-x="901" 
d="M856 0h-688v1471h280v-1204h408v-267z" />
    <glyph glyph-name="M" unicode="M" horiz-adv-x="1843" 
d="M1787 0h-270l-158 929l-313 -929h-247l-309 929l-161 -929h-273l254 1471h274l340 -1026l345 1026h270z" />
    <glyph glyph-name="N" unicode="N" horiz-adv-x="1515" 
d="M1348 0h-269l-630 965v-965h-280v1471h268l631 -968v968h280v-1471z" />
    <glyph glyph-name="O" unicode="O" horiz-adv-x="1720" 
d="M1624 731q0 -321 -219 -544.5t-540 -223.5q-325 0 -547 224t-222 549q0 210 101 387t282 282q178 103 384 103q320 0 542 -229q219 -227 219 -548zM1344 733q0 208 -137 353q-140 148 -347 148q-212 0 -348 -147q-134 -143 -134 -356q0 -244 175 -386q136 -111 312 -111
q205 0 344 148q135 144 135 351z" />
    <glyph glyph-name="P" unicode="P" horiz-adv-x="1147" 
d="M1041 1044q0 -149 -78 -253t-221 -145q-80 -23 -295 -23v-623h-280v1471h297q193 0 288 -26q152 -40 228 -162q61 -100 61 -239zM770 1044q0 85 -66 124q-49 29 -178 29h-79v-301h89q167 0 211 65q23 34 23 83z" />
    <glyph glyph-name="Q" unicode="Q" horiz-adv-x="1720" 
d="M1686 -116h-332l-130 167q-161 -88 -359 -88q-326 0 -547.5 223.5t-221.5 549.5q0 209 101 386t282 282q178 104 383 104q320 0 541 -228t221 -549q0 -299 -194 -516zM1344 733q0 206 -137 352q-140 149 -345 149q-213 0 -348.5 -144.5t-135.5 -358.5q0 -244 175 -386
q137 -111 311 -111q100 0 188 39l-263 339h334l132 -171q89 132 89 292z" />
    <glyph glyph-name="R" unicode="R" horiz-adv-x="1188" 
d="M1130 0h-306l-331 623h-26v-623h-280v1471h297q196 0 288 -25q149 -39 226 -163q63 -101 63 -239q0 -290 -279 -390zM790 1047q0 101 -92 135q-42 15 -154 15h-77v-301h88q111 0 160 22q75 34 75 129z" />
    <glyph glyph-name="S" unicode="S" horiz-adv-x="1065" 
d="M965 380q0 -190 -132 -306q-126 -111 -319 -111q-313 0 -473 319l235 142q106 -195 244 -195q64 0 114 37q56 40 56 102q0 65 -74 143q-29 31 -126 110q-181 148 -246 222q-134 151 -134 293q0 162 123 269q117 103 281 103q221 0 425 -237l-207 -183q-109 152 -222 152
q-46 0 -83 -24q-42 -28 -42 -72q0 -37 25 -70q35 -46 205 -189q163 -137 194 -169q156 -159 156 -336z" />
    <glyph glyph-name="T" unicode="T" horiz-adv-x="860" 
d="M836 1195h-268v-1195h-284v1195h-261v276h813v-276z" />
    <glyph glyph-name="U" unicode="U" horiz-adv-x="1311" 
d="M1154 594q0 -182 -13 -252q-23 -127 -107 -222q-139 -157 -377 -157q-144 0 -263 64q-128 70 -185 194q-51 110 -51 373v877h281v-952q0 -98 12 -143q19 -75 81 -112q49 -31 119 -31q154 0 202 121q20 52 20 200v917h281v-877z" />
    <glyph glyph-name="V" unicode="V" horiz-adv-x="1434" 
d="M1377 1471l-530 -1471h-270l-521 1471h288l370 -1045l375 1045h288z" />
    <glyph glyph-name="W" unicode="W" horiz-adv-x="1843" 
d="M1792 1471l-331 -1471h-269l-271 951l-266 -951h-266l-333 1471h276l212 -939l263 939h233l266 -939l210 939h276z" />
    <glyph glyph-name="X" unicode="X" horiz-adv-x="1393" 
d="M1350 0h-315l-340 517l-337 -517h-317l497 759l-466 712h315l308 -471l311 471h315l-468 -712z" />
    <glyph glyph-name="Y" unicode="Y" horiz-adv-x="1270" 
d="M1207 1471l-430 -834v-637h-282v637l-432 834h301l274 -528l272 528h297z" />
    <glyph glyph-name="Z" unicode="Z" horiz-adv-x="1024" 
d="M980 1471l-525 -1202h491v-269h-899l523 1194h-480v277h890z" />
    <glyph glyph-name="bracketleft" unicode="[" horiz-adv-x="818" 
d="M758 -157q0 -122 -164 -122h-389v1907h389q163 0 163 -122q0 -121 -163 -121h-145v-1420h145q164 0 164 -122z" />
    <glyph glyph-name="backslash" unicode="\" horiz-adv-x="1041" 
d="M981 -17h-243l-678 1466h243z" />
    <glyph glyph-name="bracketright" unicode="]" horiz-adv-x="818" 
d="M613 -279h-389q-164 0 -164 122t164 122h145v1420h-145q-163 0 -163 121q0 122 163 122h389v-1907z" />
    <glyph glyph-name="asciicircum" unicode="^" horiz-adv-x="1014" 
d="M953 880q0 -43 -30 -73.5t-73 -30.5q-48 0 -101 63l-244 290l-241 -290q-52 -63 -101 -63q-43 0 -73 30.5t-30 73.5q0 37 45 91l400 483l403 -483q45 -54 45 -91z" />
    <glyph glyph-name="underscore" unicode="_" horiz-adv-x="1158" 
d="M1278 -416q0 -102 -137 -102h-1125q-137 0 -137 102t137 102h1125q137 0 137 -102z" />
    <glyph glyph-name="grave" unicode="`" horiz-adv-x="860" 
d="M621 1287h-196l-366 392h323z" />
    <glyph glyph-name="a" unicode="a" horiz-adv-x="1352" 
d="M1214 0h-272v115q-151 -143 -335 -143q-226 0 -376 174q-143 167 -143 396q0 235 136 399q145 175 375 175q197 0 343 -148v120h272v-1088zM955 546q0 137 -82 227.5t-218 90.5q-133 0 -216 -94q-79 -90 -79 -225q0 -134 80 -226q84 -97 216 -97q136 0 220 95
q79 91 79 229z" />
    <glyph glyph-name="b" unicode="b" horiz-adv-x="1352" 
d="M1264 542q0 -229 -143 -396q-150 -174 -376 -174q-185 0 -336 143v-115h-271v1508h271v-540q148 148 344 148q230 0 375 -175q136 -164 136 -399zM992 545q0 135 -80 225q-82 94 -216 94q-135 0 -219 -92q-80 -89 -80 -226q0 -138 79 -229q84 -95 220 -95q132 0 216 97
q80 92 80 226z" />
    <glyph glyph-name="c" unicode="c" horiz-adv-x="1311" 
d="M1203 868l-227 -125q-114 119 -273 119q-149 0 -244 -88q-98 -90 -98 -238q0 -143 94 -230q91 -85 236 -85q183 0 285 125l215 -147q-175 -227 -494 -227q-260 0 -432 153q-180 159 -180 415q0 160 79.5 292t220.5 208t316 76q331 0 502 -248z" />
    <glyph glyph-name="d" unicode="d" horiz-adv-x="1352" 
d="M1214 0h-272v115q-151 -143 -335 -143q-226 0 -376 174q-143 167 -143 396q0 235 136 399q145 175 375 175q197 0 343 -148v540h272v-1508zM955 546q0 137 -82 227.5t-218 90.5q-133 0 -216 -94q-79 -90 -79 -225q0 -134 80 -226q84 -97 216 -97q136 0 220 95
q79 91 79 229z" />
    <glyph glyph-name="e" unicode="e" horiz-adv-x="1311" 
d="M1229 517l-1 -52h-877q20 -120 104 -186.5t208 -66.5q153 0 263 107l230 -108q-168 -239 -491 -239q-251 0 -414.5 158t-163.5 408q0 247 158.5 412.5t404.5 165.5q257 0 418 -164q166 -170 161 -435zM954 680q-28 95 -109 150t-182 55q-114 0 -200 -64
q-54 -40 -100 -141h591z" />
    <glyph glyph-name="f" unicode="f" horiz-adv-x="573" 
d="M562 1289q-59 17 -97 17q-49 0 -67.5 -17.5t-18.5 -64.5l-1 -136h173v-232h-173v-856h-273v856h-97v232h97q1 207 7 253q26 195 258 195q85 0 192 -39v-208z" />
    <glyph glyph-name="g" unicode="g" horiz-adv-x="1352" 
d="M1214 156q0 -275 -111 -406q-150 -176 -449 -176q-301 0 -453 157q-75 78 -111 189h301q81 -93 252 -93q209 0 272 122q27 54 27 186q-135 -135 -330 -135q-230 0 -378 166q-143 159 -143 392q0 259 160 416q145 142 346 142q188 0 345 -148v120h272v-932zM956 555
q0 134 -81.5 220t-215.5 86q-130 0 -213.5 -86.5t-83.5 -217.5q0 -134 84.5 -222t217.5 -88q132 0 213 89q79 85 79 219z" />
    <glyph glyph-name="h" unicode="h" horiz-adv-x="1229" 
d="M1103 0h-269v477q0 143 -6 189q-15 123 -73 167q-44 33 -108 33q-175 0 -225 -205q-12 -49 -12 -224v-437h-271v1508h271v-530q160 138 325 138q175 0 274 -113q94 -107 94 -284v-719z" />
    <glyph glyph-name="i" unicode="i" horiz-adv-x="491" 
d="M420 1358q0 -73 -50.5 -124.5t-122.5 -51.5q-74 0 -125 52.5t-51 127.5q0 72 51 123t123 51q73 0 124 -52t51 -126zM382 0h-274v1088h274v-1088z" />
    <glyph glyph-name="j" unicode="j" horiz-adv-x="532" 
d="M442 1358q0 -73 -50.5 -125t-122.5 -52q-74 0 -125 53t-51 128q0 73 50.5 123.5t122.5 50.5q74 0 125 -52t51 -126zM403 -36q0 -270 -127 -349q-66 -41 -159 -41q-82 0 -204 41v215q64 -31 113 -31q104 0 104 145v1144h273v-1124z" />
    <glyph glyph-name="k" unicode="k" horiz-adv-x="1188" 
d="M1214 0h-339l-462 501v-501h-273v1508h273v-869l402 449h342l-468 -522z" />
    <glyph glyph-name="l" unicode="l" horiz-adv-x="491" 
d="M382 0h-273v1508h273v-1508z" />
    <glyph glyph-name="m" unicode="m" horiz-adv-x="1925" 
d="M1803 0h-275v552q0 142 -25 209q-42 107 -159 107q-150 0 -208 -150q-27 -71 -27 -227v-491h-275v527q0 245 -86 309q-43 32 -104 32q-148 0 -206 -154q-28 -73 -28 -230v-484h-274v1088h274v-125q139 153 342 153q214 0 316 -196q133 196 366 196q108 0 195 -49
q94 -52 136 -146q38 -87 38 -283v-638z" />
    <glyph glyph-name="n" unicode="n" horiz-adv-x="1229" 
d="M1103 0h-270v477q0 149 -5 189q-15 122 -73 168q-44 33 -108 33q-176 0 -225 -209q-12 -51 -12 -221v-437h-272v1088h272v-111q166 139 323 139q163 0 275 -113q95 -95 95 -284v-719z" />
    <glyph glyph-name="o" unicode="o" horiz-adv-x="1311" 
d="M1226 545q0 -154 -76 -288t-208.5 -209.5t-291.5 -75.5q-237 0 -401 166.5t-164 404.5q0 256 187 425q163 148 377 148q154 0 289.5 -76.5t211.5 -209t76 -285.5zM950 544q0 136 -81 225.5t-216 89.5q-132 0 -216 -92q-80 -89 -80 -223q0 -136 79 -225q82 -93 216 -93
t217 93q81 90 81 225z" />
    <glyph glyph-name="p" unicode="p" horiz-adv-x="1352" 
d="M1264 542q0 -229 -143 -396q-150 -174 -376 -174q-185 0 -336 143v-513h-271v1486h271v-120q148 148 344 148q230 0 375 -175q136 -164 136 -399zM992 545q0 135 -80 225q-82 94 -216 94q-135 0 -219 -92q-80 -89 -80 -226q0 -138 79 -229q84 -95 220 -95q132 0 216 97
q80 92 80 226z" />
    <glyph glyph-name="q" unicode="q" horiz-adv-x="1352" 
d="M1214 -398h-272v513q-151 -143 -335 -143q-226 0 -376 174q-143 167 -143 396q0 235 136 399q145 175 375 175q197 0 343 -148v120h272v-1486zM955 546q0 137 -82 227.5t-218 90.5q-133 0 -216 -94q-79 -90 -79 -225q0 -134 80 -226q84 -97 216 -97q136 0 220 95
q79 91 79 229z" />
    <glyph glyph-name="r" unicode="r" horiz-adv-x="655" 
d="M658 1088l-85 -235q-48 24 -79 24q-63 0 -106 -78q-48 -85 -44 -306l1 -53v-440h-271v1088h234v-137q77 165 239 165q53 0 111 -28z" />
    <glyph glyph-name="s" unicode="s" horiz-adv-x="901" 
d="M824 311q0 -159 -119 -253q-109 -86 -273 -86q-238 0 -380 186l168 183q107 -125 227 -125q44 0 79 20q41 25 41 66q0 64 -119 123l-92 46q-264 132 -264 333q0 140 109 229q101 83 245 83q224 0 358 -180l-169 -169q-103 102 -187 102q-98 0 -98 -68q0 -42 98 -91
l100 -50q135 -67 195 -133q81 -89 81 -216z" />
    <glyph glyph-name="t" unicode="t" horiz-adv-x="614" 
d="M605 853h-162v-853h-272v853h-140v235h140v401h272v-401h162v-235z" />
    <glyph glyph-name="u" unicode="u" horiz-adv-x="1229" 
d="M1093 627q0 -285 -45 -390q-114 -265 -434 -265q-349 0 -445 303q-32 101 -32 360v453h276v-524q0 -117 9 -166q18 -96 80 -139q46 -33 114 -33q139 0 186 128q17 47 17 201v533h274v-461z" />
    <glyph glyph-name="v" unicode="v" horiz-adv-x="1147" 
d="M1125 1088l-463 -1088h-177l-464 1088h278l275 -642l274 642h277z" />
    <glyph glyph-name="w" unicode="w" horiz-adv-x="1638" 
d="M1621 1088l-397 -1088h-173l-232 620l-239 -620h-171l-392 1088h267l219 -619l236 619h163l231 -612l219 612h269z" />
    <glyph glyph-name="x" unicode="x" horiz-adv-x="1147" 
d="M1146 0h-317l-259 357l-256 -357h-313l412 573l-373 515h317l213 -297l216 297h314l-372 -515z" />
    <glyph glyph-name="y" unicode="y" horiz-adv-x="1188" 
d="M1171 1088l-682 -1486h-282l224 479l-414 1007h279l283 -683l312 683h280z" />
    <glyph glyph-name="z" unicode="z" horiz-adv-x="942" 
d="M926 1088l-490 -857h462v-231h-882l492 857h-417v231h835z" />
    <glyph glyph-name="braceleft" unicode="{" horiz-adv-x="814" 
d="M754 -180q0 -54 -37 -88.5t-91 -34.5q-127 0 -221.5 98t-94.5 225v442q0 50 -16.5 69.5t-65.5 25.5q-119 14 -119 124t119 124q49 6 65.5 26t16.5 69v430q0 129 93 225.5t222 96.5q55 0 92 -34.5t37 -88.5q0 -113 -120 -124q-81 -8 -81 -94v-411q0 -141 -73 -219
q48 -52 63 -112q10 -42 10 -130v-401q0 -88 81 -95q120 -11 120 -123z" />
    <glyph glyph-name="bar" unicode="|" horiz-adv-x="615" 
d="M410 -198q-4 -53 -33.5 -79t-68.5 -26q-34 0 -64 22t-35 54q-4 26 -4 121v1653q4 53 36 80q28 25 66 25q34 0 64 -22t35 -54q4 -26 4 -121v-1653z" />
    <glyph glyph-name="braceright" unicode="}" horiz-adv-x="814" 
d="M705 681q0 -110 -119 -124q-49 -6 -65.5 -25.5t-16.5 -69.5v-442q0 -127 -94.5 -225t-221.5 -98q-54 0 -91 34.5t-37 88.5q0 112 120 123q81 7 81 95v401q0 88 10 130q15 60 63 112q-73 78 -73 219v411q0 86 -81 94q-120 11 -120 124q0 55 37 89t92 34q128 0 221.5 -96.5
t93.5 -225.5v-430q0 -49 16.5 -69t65.5 -26q119 -14 119 -124z" />
    <glyph glyph-name="asciitilde" unicode="~" horiz-adv-x="1212" 
d="M1167 661q-162 -143 -319 -143q-101 0 -293 95q-131 65 -202 65q-149 0 -307 -151v255q163 142 326 142q97 0 271 -85q151 -74 227 -74q135 0 297 150v-254z" />
    <glyph glyph-name="uni007F" horiz-adv-x="1229" 
d="M1188 59h-293v469h62v-414h231v-55zM835 59h-350v469h339v-56h-277v-143h260v-55h-260v-160h288v-55zM429 296q0 -102 -45 -163q-36 -51 -98 -66q-33 -8 -76 -8h-169v469h162q54 0 83 -7q89 -21 125 -114q18 -49 18 -111zM365 297q0 134 -83 166q-25 9 -80 9h-99v-358
h100q82 0 115 33q47 47 47 150z" />
    <glyph glyph-name="uni00A0" unicode="&#xa0;" horiz-adv-x="1536" 
 />
    <glyph glyph-name="exclamdown" unicode="&#xa1;" horiz-adv-x="549" 
d="M417 726q0 -74 -34 -125q-39 -59 -109 -59t-109 59q-33 51 -33 125q0 73 33 125q39 59 109 59t109 -60q34 -51 34 -124zM399 -425q2 -91 -83 -91h-86q-79 0 -78 91l12 754q1 64 27 85q22 18 85 18q61 0 84.5 -21.5t24.5 -81.5z" />
    <glyph glyph-name="cent" unicode="&#xa2;" horiz-adv-x="1147" 
d="M1051 885l-223 -132q-23 31 -52 59l-255 -577q55 -21 107 -21q125 0 221 98l175 -170q-166 -170 -415 -170q-95 0 -190 28l-111 -243l-153 66l120 264q-191 188 -191 458q0 348 265 500q125 71 280 71q43 0 96 -8l96 218l155 -67l-94 -210q110 -69 169 -164zM619 870
q-134 -8 -203 -104q-61 -86 -61 -226q0 -98 38 -183z" />
    <glyph glyph-name="sterling" unicode="&#xa3;" horiz-adv-x="1276" 
d="M1215 124q0 -87 -50 -110q-30 -14 -131 -14h-834q-79 0 -105 21q-33 26 -33 108q0 74 32 101q25 21 85 21q15 0 50.5 -1.5t55.5 -1.5v344q-22 0 -59 -1.5t-51 -1.5q-61 0 -85 23q-30 29 -30 110q0 71 32 98q25 21 82 21q16 0 53 -2t58 -2q0 24 -1 74t-1 76q0 140 27 223
q37 113 134 176q107 68 267 68q123 0 271 -62q179 -75 179 -180q0 -32 -45.5 -81.5t-77.5 -49.5q-17 0 -127 69.5t-191 69.5q-128 0 -167 -102q-21 -56 -21 -210v-71q31 0 87 3.5t79 3.5q70 0 102 -25q39 -30 39 -110q0 -124 -147 -124q-24 0 -78 3.5t-82 3.5v-344h517
q98 0 123 -13q43 -23 43 -111z" />
    <glyph glyph-name="currency" unicode="&#xa4;" horiz-adv-x="1229" 
d="M1136 425l-119 -121l-105 103q-138 -100 -296 -100q-157 0 -295 100l-105 -103l-120 121l103 104q-92 140 -92 289q0 162 94 292l-106 104l121 124l106 -106q139 97 296 97q152 0 291 -94l105 103l119 -124l-104 -101q98 -133 98 -295q0 -157 -95 -289zM930 819
q0 132 -90 226t-222 94q-133 0 -224 -95t-91 -228q0 -131 91.5 -224.5t222.5 -93.5q132 0 222.5 94t90.5 227z" />
    <glyph glyph-name="yen" unicode="&#xa5;" horiz-adv-x="1147" 
d="M1100 1471l-311 -692h264v-163h-338v-128h338v-169h-338v-319h-283v319h-339v169h339v128h-339v163h265l-310 692h291l235 -523l235 523h291z" />
    <glyph glyph-name="brokenbar" unicode="&#xa6;" horiz-adv-x="1229" 
d="M695 799l-158 -55v764h158v-709zM695 -398h-158v910l158 55v-965z" />
    <glyph glyph-name="section" unicode="&#xa7;" horiz-adv-x="1184" 
d="M1076 1441q0 -37 -30 -88q-33 -56 -66 -56q-26 0 -175 67t-248 67q-183 0 -183 -149q0 -96 179 -182q322 -157 331 -162q179 -117 179 -286q0 -157 -142 -281q129 -108 129 -267q0 -199 -133 -310q-125 -103 -327 -103q-117 0 -279 54q-200 66 -200 155q0 34 37 87t69 53
q11 0 154.5 -64.5t242.5 -64.5q191 0 191 160q0 105 -180 193l-336 162q-180 115 -180 286q0 143 152 279q-132 123 -132 275q0 178 132 286q122 101 304 101q155 0 279 -48q232 -91 232 -164zM819 617q0 83 -167 173l-224 102q-71 -72 -71 -136q0 -90 159 -179
q112 -52 223 -103q80 64 80 143z" />
    <glyph glyph-name="dieresis" unicode="&#xa8;" horiz-adv-x="1024" 
d="M877 1430q0 -60 -42 -102t-102 -42t-101.5 42t-41.5 102q0 59 42 101t101 42q60 0 102 -41.5t42 -101.5zM434 1430q0 -60 -42 -102t-102 -42t-101.5 42t-41.5 102q0 59 42 101t101 42q60 0 102 -41.5t42 -101.5z" />
    <glyph glyph-name="copyright" unicode="&#xa9;" horiz-adv-x="1515" 
d="M1524 757q0 -206 -102.5 -383t-280.5 -279.5t-383 -102.5q-206 0 -383.5 102.5t-280 280t-102.5 382.5t102.5 381.5t280 279t383.5 102.5t383 -102t280 -279.5t103 -381.5zM1366 754q0 254 -176.5 431t-430.5 177q-164 0 -305.5 -80.5t-222.5 -221.5t-81 -302
q0 -162 81 -301t222.5 -220t303.5 -81q163 0 304.5 80.5t223 219.5t81.5 298zM1156 616q-18 -138 -121.5 -219.5t-244.5 -81.5q-195 0 -314 131q-115 127 -115 324q0 192 116 316t307 124q308 0 372 -293h-176q-35 154 -194 154q-122 0 -192 -91q-63 -82 -63 -208
q0 -125 65 -216q73 -101 194 -101q74 0 127.5 44t62.5 117h176z" />
    <glyph glyph-name="ordfeminine" unicode="&#xaa;" horiz-adv-x="737" 
d="M659 810h-200v56q-66 -72 -153 -72q-122 0 -196 122q-63 104 -63 234q0 133 60 235q71 123 195 123q88 0 157 -75v58h200v-681zM466 1152q0 64 -23 113q-29 64 -87 64q-56 0 -85 -65q-23 -49 -23 -112q0 -64 23 -114q29 -66 86 -66t87 66q22 50 22 114z" />
    <glyph glyph-name="guillemotleft" unicode="&#xab;" horiz-adv-x="942" 
d="M917 0h-255l-184 540l184 548h255l-185 -548zM463 0h-255l-183 540l183 548h255l-185 -548z" />
    <glyph glyph-name="logicalnot" unicode="&#xac;" horiz-adv-x="1229" 
d="M1114 396l-249 1v428l-750 -1v250h999v-678z" />
    <glyph glyph-name="uni00AD" unicode="&#xad;" horiz-adv-x="1229" 
d="M1114 610h-999v250h999v-250z" />
    <glyph glyph-name="registered" unicode="&#xae;" horiz-adv-x="1515" 
d="M1524 755q0 -205 -102 -381.5t-280 -279t-384 -102.5q-205 0 -383 102t-280.5 279t-102.5 383q0 205 102 382t280 279.5t384 102.5t383 -102t280 -279.5t103 -383.5zM1366 753q0 254 -176 431.5t-430 177.5q-253 0 -431.5 -175.5t-178.5 -428.5q0 -163 80.5 -301.5
t222.5 -219.5t305 -81q162 0 304 80t223 219t81 298zM1141 334h-210q-21 51 -23 136.5t-3 94.5q-8 62 -40 81q-23 13 -91 13h-149v-325h-184v839h371q96 0 148 -17q72 -24 113 -91q33 -56 33 -135q0 -123 -98 -193q51 -29 69 -72q12 -30 15 -101q2 -61 3 -123q8 -77 46 -107
zM926 914q0 63 -44 84q-29 14 -102 14h-155v-199h154q73 0 103 15q44 22 44 86z" />
    <glyph glyph-name="macron" unicode="&#xaf;" horiz-adv-x="860" 
d="M714 1287h-569v221h569v-221z" />
    <glyph glyph-name="degree" unicode="&#xb0;" horiz-adv-x="807" 
d="M722 1131q0 -132 -93.5 -225.5t-225.5 -93.5t-225.5 93.5t-93.5 225.5t93.5 225t225.5 93q133 0 226 -92.5t93 -225.5zM555 1131q0 63 -44.5 107.5t-107.5 44.5t-108 -44.5t-45 -107.5t45 -108t108 -45q64 0 108 44.5t44 108.5z" />
    <glyph glyph-name="plusminus" unicode="&#xb1;" horiz-adv-x="1212" 
d="M1140 563h-417v-344h-235v344h-416v236h416v416h235v-416h417v-236zM1140 -140h-1068v236h1068v-236z" />
    <glyph glyph-name="uni00B2" unicode="&#xb2;" horiz-adv-x="943" 
d="M827 968l-26 -212h-686q17 180 147 319l232 200q121 106 121 210q0 155 -149 155q-88 0 -128 -54q-19 -26 -38 -101q-14 -54 -41 -54h-91q-16 0 -27 7q-5 15 -5 34q0 150 98 238q94 85 245 85q140 0 229 -75q95 -79 95 -217q0 -136 -105 -248q-35 -38 -208 -171
q-126 -96 -154 -175h334q6 57 7 62q10 37 41 37h72q42 0 37 -40z" />
    <glyph glyph-name="uni00B3" unicode="&#xb3;" horiz-adv-x="943" 
d="M807 1042q0 -145 -103 -225q-93 -72 -242 -72q-342 0 -342 323q0 15 5 29q10 6 24 6h94q22 0 34 -53q17 -70 39 -98q43 -53 137 -53q72 0 118.5 40t46.5 111q0 92 -51 133q-27 22 -94 37q-51 12 -51 33v94q0 23 44 35q63 17 83 31q44 31 44 101q0 125 -147 125
q-67 0 -105 -33q-20 -18 -41 -61q-17 -33 -32 -33h-93q-35 0 -35 31q0 120 94 189q85 63 208 63q142 0 232 -60q106 -70 106 -205q0 -164 -162 -223q189 -81 189 -265z" />
    <glyph glyph-name="acute" unicode="&#xb4;" horiz-adv-x="860" 
d="M801 1679l-366 -392h-196l239 392h323z" />
    <glyph glyph-name="mu" unicode="&#xb5;" horiz-adv-x="1180" 
d="M1091 0h-280v127q-80 -156 -223 -156q-141 0 -223 148v-517h-277v1486h277v-571q0 -104 15 -155q23 -78 91 -122q56 -37 121 -37q138 0 193 132q26 64 26 190v563h280v-1088z" />
    <glyph glyph-name="paragraph" unicode="&#xb6;" horiz-adv-x="1229" 
d="M1056 1397h-82v-1776h-139v1776h-144v-1776h-139v1089q-185 1 -287 105t-102 289q0 409 473 409h420v-116z" />
    <glyph glyph-name="periodcentered" unicode="&#xb7;" horiz-adv-x="573" 
d="M444 735q0 -65 -46 -111t-111 -46t-111 46t-46 111t46 111t111 46t111 -46t46 -111z" />
    <glyph glyph-name="cedilla" unicode="&#xb8;" horiz-adv-x="696" 
d="M563 -184q0 -96 -84 -151q-71 -46 -173 -46q-98 0 -222 46l36 129q72 -23 141 -23q101 0 101 71q0 59 -79 56l-56 -2l35 120h169l-12 -46q60 -13 100 -52q44 -44 44 -102z" />
    <glyph glyph-name="uni00B9" unicode="&#xb9;" horiz-adv-x="943" 
d="M831 794q0 -18 -6 -32q-17 -6 -38 -6h-529q-40 0 -46 37q1 -5 1 71q0 46 42 46h179v664q-8 0 -81 -3q-63 -2 -99 -1q-53 2 -73 11q-6 15 -6 114q0 24 45 24q13 0 49 -2.5t56 -2.5q115 0 140 80h137v-884q48 0 104 4.5t67 4.5q44 0 55 -44q3 -13 3 -81z" />
    <glyph glyph-name="ordmasculine" unicode="&#xba;" horiz-adv-x="737" 
d="M693 1151q0 -147 -89 -249q-94 -108 -238 -108q-140 0 -233 110q-88 103 -88 246q0 142 88 247q93 111 232 111q143 0 238 -108q90 -104 90 -249zM491 1151q0 67 -28 115q-33 60 -95 60q-60 0 -94 -60q-27 -50 -27 -115q0 -67 26 -116q33 -61 95 -61t95 61q28 49 28 116z
" />
    <glyph glyph-name="guillemotright" unicode="&#xbb;" horiz-adv-x="942" 
d="M917 548l-184 -548h-255l186 548l-186 540h255zM463 548l-183 -548h-255l185 548l-185 540h255z" />
    <glyph glyph-name="onequarter" unicode="&#xbc;" horiz-adv-x="1582" 
d="M1562 255q0 -45 -39 -53l-77 -1q0 -30 3 -72t3 -55q0 -42 -20 -57q-23 -17 -90 -17q-73 0 -73 92q0 19 3.5 56.5t3.5 52.5h-246q-65 0 -79 19q-12 15 -12 86q0 42 36 89l285 376q28 37 51 42h73q62 0 62 -63v-396q80 0 96 -12q20 -15 20 -87zM1276 1450l-678 -1467h-243
l678 1467h243zM585 704q0 -45 -16 -57q-12 -9 -58 -9h-367q-47 0 -58 27q-6 13 -6 69q0 73 78 73q12 0 40.5 -2t43.5 -2v434q-29 0 -69 -2.5t-52 -2.5q-41 0 -55 21.5t-14 90.5q0 50 62 50q10 0 32 -1t33 -1q76 0 92 58h146v-647q22 0 54.5 1.5t42.5 1.5q41 0 55 -18
q16 -21 16 -84zM1276 354v193l-147 -193h147z" />
    <glyph glyph-name="onehalf" unicode="&#xbd;" horiz-adv-x="1582" 
d="M1533 188l-23 -188h-555q15 159 111 270q25 29 171 149q88 72 88 141q0 86 -84 86q-47 0 -71 -32q-15 -20 -25 -65q-9 -40 -18 -46q-11 -9 -93 -9q-60 0 -60 51q0 122 77 195t200 73q117 0 190.5 -65t73.5 -180q0 -94 -60 -167q-33 -41 -131 -115q-93 -71 -130 -121h185
q1 51 28 64q15 8 72 8q54 0 54 -49zM1239 1450l-678 -1467h-243l678 1467h243zM585 704q0 -45 -16 -57q-12 -9 -58 -9h-367q-47 0 -58 27q-6 13 -6 69q0 73 78 73q12 0 40.5 -2t43.5 -2v434q-29 0 -69 -2.5t-52 -2.5q-41 0 -55 21.5t-14 90.5q0 50 62 50q10 0 32 -1t33 -1
q76 0 92 58h146v-647q22 0 54.5 1.5t42.5 1.5q41 0 55 -18q16 -21 16 -84z" />
    <glyph glyph-name="threequarters" unicode="&#xbe;" horiz-adv-x="1582" 
d="M1563 255q0 -45 -40 -53l-77 -1q0 -31 3 -73.5t3 -54.5q0 -41 -20 -56q-23 -17 -90 -17q-72 0 -72 93q0 19 3.5 56.5t3.5 51.5h-246q-65 0 -79 19q-12 15 -12 86q0 41 36 89l284 376q27 36 52 41l73 1q61 0 61 -63v-396q81 0 97 -12q20 -15 20 -87zM1277 1450l-678 -1467
h-243l678 1467h243zM603 873q0 -117 -82 -183q-76 -61 -195 -61q-278 0 -278 260q0 45 33 54q6 1 73 1q48 0 67.5 -74.5t92.5 -74.5q98 0 98 87q0 66 -54 86q-38 12 -77 24q-12 9 -12 95q0 49 62.5 65t62.5 64q0 67 -80 67q-55 0 -79 -46.5t-52 -46.5h-68q-53 0 -53 52
q0 99 79 156q71 52 173 52q113 0 186 -52q83 -59 83 -168q0 -101 -85 -164q105 -66 105 -193zM1277 354v193l-147 -193h147z" />
    <glyph glyph-name="questiondown" unicode="&#xbf;" horiz-adv-x="939" 
d="M606 787q0 -73 -33 -124q-38 -59 -108 -59q-69 0 -108 59q-33 51 -33 124q0 182 141 182q68 0 107 -59q34 -51 34 -123zM807 -142q0 -148 -99 -234q-94 -83 -244 -83q-148 0 -237 77q-95 81 -95 228q0 125 120 290t120 300q0 43 22 57.5t74 14.5q73 0 97 -35
q17 -26 17 -100q0 -124 -114 -285t-114 -231q0 -136 120 -136q93 0 114 65q9 60 19 121q17 65 99 65q61 0 83 -29q18 -24 18 -85z" />
    <glyph glyph-name="multiply" unicode="&#xd7;" horiz-adv-x="1212" 
d="M1115 1021l-342 -343l340 -339l-166 -165l-340 339l-340 -339l-166 165l340 339l-344 344l166 166l343 -343l343 343z" />
    <glyph glyph-name="divide" unicode="&#xf7;" horiz-adv-x="1212" 
d="M740 1081q0 -57 -40.5 -97.5t-97.5 -40.5t-97.5 40.5t-40.5 97.5t40.5 97.5t97.5 40.5t97.5 -40.5t40.5 -97.5zM1140 570h-1068v222h1068v-222zM744 289q0 -58 -41 -98.5t-99 -40.5t-98.5 40.5t-40.5 98.5q0 57 41 98t98 41q58 0 99 -40.5t41 -98.5z" />
    <glyph glyph-name="florin" unicode="&#x192;" horiz-adv-x="1147" 
d="M1078 1453l-33 -239q-82 59 -139 59t-83 -71q-10 -30 -23 -119l-21 -149h224l-34 -234h-226l-106 -756q-36 -253 -161 -331q-63 -39 -137 -39q-113 0 -267 90l34 242q95 -74 160 -74q53 0 76 58q9 23 21 103l107 707h-227l34 234h227l33 249q47 353 294 353
q119 0 247 -83z" />
    <glyph glyph-name="uni05B0" unicode="&#x5b0;" 
d="M75 -130q31 0 53 -22t22 -53q0 -32 -22 -53.5t-53 -21.5t-53 21.5t-22 53.5q0 30 22 52.5t53 22.5zM75 -384q31 0 53 -22t22 -53q0 -32 -22 -53.5t-53 -21.5t-53 21.5t-22 53.5q0 30 22 52.5t53 22.5z" />
    <glyph glyph-name="uni05B1" unicode="&#x5b1;" 
d="M375 -130q31 0 53 -22t22 -53q0 -32 -22 -53.5t-53 -21.5t-53 21.5t-22 53.5q0 30 22 52.5t53 22.5zM75 -130q31 0 53 -22t22 -53q0 -32 -22 -53.5t-53 -21.5t-53 21.5t-22 53.5q0 30 22 52.5t53 22.5zM225 -384q31 0 53 -22t22 -53q0 -32 -22 -53.5t-53 -21.5t-53 21.5
t-22 53.5q0 30 22 52.5t53 22.5zM625 -130q31 0 53 -22t22 -53q0 -32 -22 -53.5t-53 -21.5t-53 21.5t-22 53.5q0 30 22 52.5t53 22.5zM625 -384q31 0 53 -22t22 -53q0 -32 -22 -53.5t-53 -21.5t-53 21.5t-22 53.5q0 30 22 52.5t53 22.5z" />
    <glyph glyph-name="uni05B2" unicode="&#x5b2;" 
d="M14 -156h372q13 0 13 -17v-67q0 -14 -13 -14h-372q-14 0 -14 14v68q0 16 14 16zM625 -130q31 0 53 -22t22 -53q0 -32 -22 -53.5t-53 -21.5t-53 21.5t-22 53.5q0 30 22 52.5t53 22.5zM625 -384q31 0 53 -22t22 -53q0 -32 -22 -53.5t-53 -21.5t-53 21.5t-22 53.5
q0 30 22 52.5t53 22.5z" />
    <glyph glyph-name="uni05B3" unicode="&#x5b3;" 
d="M14 -156h372q13 0 13 -17v-67q0 -14 -13 -14h-136v-216q0 -12 -12 -12h-79q-10 0 -10 13v215h-135q-14 0 -14 14v68q0 16 14 16zM625 -130q31 0 53 -22t22 -53q0 -32 -22 -53.5t-53 -21.5t-53 21.5t-22 53.5q0 30 22 52.5t53 22.5zM625 -384q31 0 53 -22t22 -53
q0 -32 -22 -53.5t-53 -21.5t-53 21.5t-22 53.5q0 30 22 52.5t53 22.5z" />
    <glyph glyph-name="uni05B4" unicode="&#x5b4;" 
d="M75 -130q31 0 53 -22t22 -53q0 -32 -22 -53.5t-53 -21.5t-53 21.5t-22 53.5q0 30 22 52.5t53 22.5z" />
    <glyph glyph-name="uni05B5" unicode="&#x5b5;" 
d="M375 -130q31 0 53 -22t22 -53q0 -32 -22 -53.5t-53 -21.5t-53 21.5t-22 53.5q0 30 22 52.5t53 22.5zM75 -130q31 0 53 -22t22 -53q0 -32 -22 -53.5t-53 -21.5t-53 21.5t-22 53.5q0 30 22 52.5t53 22.5z" />
    <glyph glyph-name="uni05B6" unicode="&#x5b6;" 
d="M375 -130q31 0 53 -22t22 -53q0 -32 -22 -53.5t-53 -21.5t-53 21.5t-22 53.5q0 30 22 52.5t53 22.5zM75 -130q31 0 53 -22t22 -53q0 -32 -22 -53.5t-53 -21.5t-53 21.5t-22 53.5q0 30 22 52.5t53 22.5zM225 -384q31 0 53 -22t22 -53q0 -32 -22 -53.5t-53 -21.5t-53 21.5
t-22 53.5q0 30 22 52.5t53 22.5z" />
    <glyph glyph-name="uni05B7" unicode="&#x5b7;" 
d="M14 -156h372q13 0 13 -17v-67q0 -14 -13 -14h-372q-14 0 -14 14v68q0 16 14 16z" />
    <glyph glyph-name="uni05B8" unicode="&#x5b8;" 
d="M14 -156h372q13 0 13 -17v-67q0 -14 -13 -14h-136v-216q0 -12 -12 -12h-79q-10 0 -10 13v215h-135q-14 0 -14 14v68q0 16 14 16z" />
    <glyph glyph-name="uni05B9" unicode="&#x5b9;" 
d="M75 1669q31 0 53 -22t22 -53q0 -32 -22 -53.5t-53 -21.5t-53 21.5t-22 53.5q0 30 22 52.5t53 22.5z" />
    <glyph glyph-name="uni05BB" unicode="&#x5bb;" 
d="M275 -257q31 0 53 -22t22 -53q0 -32 -22 -53.5t-53 -21.5t-53 21.5t-22 53.5q0 30 22 52.5t53 22.5zM75 -130q31 0 53 -22t22 -53q0 -32 -22 -53.5t-53 -21.5t-53 21.5t-22 53.5q0 30 22 52.5t53 22.5zM475 -384q31 0 53 -22t22 -53q0 -32 -22 -53.5t-53 -21.5t-53 21.5
t-22 53.5q0 30 22 52.5t53 22.5z" />
    <glyph glyph-name="uni05BC" unicode="&#x5bc;" 
d="M75 808q31 0 53 -22t22 -53q0 -32 -22 -53.5t-53 -21.5t-53 21.5t-22 53.5q0 30 22 52.5t53 22.5z" />
    <glyph glyph-name="uni05BD" unicode="&#x5bd;" 
d="M15 -130h67q16 0 16 -14v-373q0 -17 -17 -17h-66q-15 0 -15 13v378q0 13 15 13z" />
    <glyph glyph-name="uni05BE" unicode="&#x5be;" horiz-adv-x="459" 
d="M459 1224q0 -17 -9 -17h-435q-15 0 -15 17v187q0 18 16 18h424q19 0 19 -19v-186z" />
    <glyph glyph-name="uni05BF" unicode="&#x5bf;" 
d="M200 1559q0 -14 -13 -14h-373q-13 0 -13 14v68q0 16 14 16h368q17 0 17 -17v-67z" />
    <glyph glyph-name="uni05C0" unicode="&#x5c0;" horiz-adv-x="615" 
d="M410 -16q-4 -53 -33.5 -79t-68.5 -26q-34 0 -64 22t-35 54q-4 26 -4 121v1471q4 53 36 80q28 25 66 25q34 0 64 -22t35 -54q4 -26 4 -121v-1471z" />
    <glyph glyph-name="uni05C1" unicode="&#x5c1;" 
d="M1371 1669q31 0 53 -22t22 -53q0 -32 -22 -53.5t-53 -21.5t-53 21.5t-22 53.5q0 30 22 52.5t53 22.5z" />
    <glyph glyph-name="uni05C2" unicode="&#x5c2;" 
d="M381 1669q31 0 53 -22t22 -53q0 -32 -22 -53.5t-53 -21.5t-53 21.5t-22 53.5q0 30 22 52.5t53 22.5z" />
    <glyph glyph-name="uni05C3" unicode="&#x5c3;" horiz-adv-x="595" 
d="M441 972q0 -80 -30 -137q-38 -71 -112 -71q-73 0 -112 71q-31 57 -31 137t31 137q39 71 112 71q75 0 112 -70q30 -56 30 -138zM440 211q0 -81 -31 -138q-38 -71 -112 -71q-73 0 -111 72q-31 57 -31 137q0 79 31 136q39 72 111 72q75 0 113 -70q30 -56 30 -138z" />
    <glyph glyph-name="uni05D0" unicode="&#x5d0;" horiz-adv-x="1288" 
d="M1168 1030q0 -152 -90 -253q-72 -81 -229 -151l299 -486q17 -28 17 -44q0 -22 -40 -50l-55 -38q-39 -27 -66 -27q-31 0 -53 35l-488 784q-105 -66 -105 -185v-343q0 -51 46 -51h85q72 0 72 -67v-101q0 -54 -76 -54h-288q-77 0 -77 71v562q0 235 225 363l-199 318
q-11 18 -11 40q0 30 20 42l94 58q28 17 49 17q30 0 52 -35l389 -630q125 64 159 123q31 54 31 199q0 42 -4 54q-8 26 -40 26h-111q-49 0 -49 50v131q0 38 55 43q-22 -2 84 -2h234q70 0 70 -90v-309z" />
    <glyph glyph-name="uni05D1" unicode="&#x5d1;" horiz-adv-x="1246" 
d="M1196 63q0 -40 -14 -52t-55 -12h-1014q-78 0 -78 61v91q0 71 67 71h675v854q0 131 -128 131h-528q-55 0 -55 51v120q0 51 59 51h563q335 0 335 -312v-895h108q65 0 65 -56v-103z" />
    <glyph glyph-name="uni05D2" unicode="&#x5d2;" horiz-adv-x="1029" 
d="M829 57q0 -58 -68 -58h-108q-69 0 -69 58v322q-94 -136 -214 -241q-158 -138 -280 -138q-55 0 -55 60v132q0 47 96 100q453 252 453 603v255q0 57 -49 57h-213q-68 0 -68 50v119q0 49 52 52q15 1 151 1h237q75 0 105 -34t30 -111v-1227z" />
    <glyph glyph-name="uni05D3" unicode="&#x5d3;" horiz-adv-x="1041" 
d="M981 1283q0 -76 -72 -76h-104v-1119q0 -89 -89 -89h-66q-90 0 -90 89v1119h-455q-80 0 -80 75v67q0 78 71 80h815q70 0 70 -81v-65z" />
    <glyph glyph-name="uni05D4" unicode="&#x5d4;" horiz-adv-x="1455" 
d="M1255 72q0 -73 -77 -73h-86q-84 0 -84 73v1050q0 85 -78 85h-681q-64 0 -64 59v105q0 47 36 55q17 3 188 3h689q74 0 115.5 -47.5t41.5 -122.5v-1187zM473 87q0 -87 -70 -87h-102q-75 0 -75 93v776q0 74 91 74h92q27 0 45.5 -23t18.5 -51v-782z" />
    <glyph glyph-name="uni05D5" unicode="&#x5d5;" horiz-adv-x="736" 
d="M536 73q0 -73 -71 -73h-89q-87 0 -87 97v1046q0 64 -50 64h-128q-61 0 -61 71v85q0 50 54 62q18 4 94 4h267q29 0 50 -20.5t21 -49.5v-1286z" />
    <glyph glyph-name="uni05D6" unicode="&#x5d6;" horiz-adv-x="734" 
d="M684 1277q0 -70 -67 -70h-129v-1122q0 -85 -79 -85h-88q-80 0 -80 64v1143h-124q-67 0 -67 63v85q0 70 46 73q17 1 201 1h314q73 0 73 -78v-74z" />
    <glyph glyph-name="uni05D7" unicode="&#x5d7;" horiz-adv-x="1430" 
d="M1340 1254q0 -47 -47 -47h-103v-1154q0 -53 -63 -53h-120q-62 0 -62 63v1144h-460v-1162q0 -45 -47 -45h-139q-36 0 -47.5 14t-11.5 52v1141h-106q-44 0 -44 50v123q0 37 31 46q10 3 30 3h1143q46 0 46 -51v-124z" />
    <glyph glyph-name="uni05D8" unicode="&#x5d8;" horiz-adv-x="1413" 
d="M1233 349q0 -191 -110 -275q-98 -74 -296 -74h-171q-212 0 -307 71q-109 82 -109 285v788q0 63 -42 63h-54q-46 0 -46 52v101q0 69 98 69h195q96 0 96 -106v-977q0 -124 162 -124h174q164 0 164 118v772q0 110 -91 110q-81 0 -81 -84v-127q0 -72 -101 -72q-115 0 -115 93
v135q0 288 315 288q319 0 319 -305v-801z" />
    <glyph glyph-name="uni05D9" unicode="&#x5d9;" horiz-adv-x="731" 
d="M601 809q0 -76 -68 -76h-95q-83 0 -83 89v334q0 51 -48 51h-179q-78 0 -78 81v76q0 19 16 39t34 24q15 2 139 2h218q144 0 144 -155v-465z" />
    <glyph glyph-name="uni05DA" unicode="&#x5da;" horiz-adv-x="1144" 
d="M1084 1270q0 -63 -59 -63h-116v-1228q0 -60 52 -60h66q46 0 46 -58v-112q0 -53 -55 -53h-270q-86 0 -86 120v1391h-565q-72 0 -72 72v76q0 59 38 69q18 5 203 5h757q61 0 61 -63v-96z" />
    <glyph glyph-name="uni05DB" unicode="&#x5db;" horiz-adv-x="1228" 
d="M1098 673q0 -287 -102 -460q-125 -214 -392 -214h-480q-89 0 -89 87v58q0 70 59 76q17 1 182 1h286q167 0 241 175q53 125 53 318q0 219 -51 331q-73 162 -263 162h-375q-84 0 -84 67v79q0 76 81 76h381q271 0 416 -171q137 -161 137 -437v-148z" />
    <glyph glyph-name="uni05DC" unicode="&#x5dc;" horiz-adv-x="1085" 
d="M965 976q0 -172 -80 -302q-57 -94 -211 -236q-148 -137 -148 -188q0 -29 39 -29h132q75 0 75 -59v-105q0 -58 -63 -58h-418q-57 0 -57 75v78q0 140 82 259q51 74 190 202q109 100 156 181q59 102 59 229q0 184 -104 184h-495q-29 0 -50.5 19t-21.5 47v322q0 57 66 57h101
q61 0 61 -74v-98q0 -49 71 -55q-50 4 111 4h306q77 0 116.5 -32t60.5 -107q22 -79 22 -200v-114z" />
    <glyph glyph-name="uni05DD" unicode="&#x5dd;" horiz-adv-x="1405" 
d="M1205 183q0 -184 -129 -184h-758q-78 0 -78 78v1130h-112q-55 0 -55 50v112q0 49 33 57q12 3 203 3h737q159 0 159 -275v-971zM960 315v755q0 137 -88 137h-385v-926q0 -60 61 -60h332q80 0 80 94z" />
    <glyph glyph-name="uni05DE" unicode="&#x5de;" horiz-adv-x="1403" 
d="M1213 170q0 -171 -144 -171h-391q-75 0 -75 73v71q0 33 23 56t56 23h206q80 0 80 62v763q0 178 -147 178q-132 0 -237 -142q-97 -131 -97 -268v-729q0 -87 -72 -87h-109q-66 0 -66 64v1075q0 69 -57 69h-46q-67 0 -67 66v90q0 47 42 60q19 6 82 6h204q89 0 89 -92v-101
q145 218 360 218q177 0 275 -119q91 -111 91 -292v-873z" />
    <glyph glyph-name="uni05DF" unicode="&#x5df;" horiz-adv-x="696" 
d="M606 -251q0 -56 -57 -56h-210q-41 0 -70 27.5t-29 68.5v1351q0 67 -49 67h-57q-60 0 -60 62v78q0 55 37 72q22 10 88 10h180q106 0 106 -104v-1335q0 -67 58 -67h21q42 0 42 -46v-128z" />
    <glyph glyph-name="uni05E0" unicode="&#x5e0;" horiz-adv-x="820" 
d="M620 132q0 -57 -31 -95t-87 -38h-398q-69 0 -69 66v92q0 64 54 64h237q49 0 49 57v870q0 58 -41 58h-147q-46 0 -63.5 15t-17.5 59v78q0 64 43 69q17 2 141 2h220q110 0 110 -125v-1172z" />
    <glyph glyph-name="uni05E0" unicode="&#xf8ff;" horiz-adv-x="820" 
d="M620 132q0 -57 -31 -95t-87 -38h-398q-69 0 -69 66v92q0 64 54 64h237q49 0 49 57v870q0 58 -41 58h-147q-46 0 -63.5 15t-17.5 59v78q0 64 43 69q17 2 141 2h220q110 0 110 -125v-1172z" />
    <glyph glyph-name="uni05E1" unicode="&#x5e1;" horiz-adv-x="1374" 
d="M1184 585q0 -320 -99 -449q-114 -150 -421 -150q-299 0 -392 186q-50 99 -50 249v786h-128q-44 0 -44 58v101q0 52 41 60q16 3 186 3h686q112 0 157 -89q27 -53 43 -191q21 -183 21 -388v-176zM939 622q0 476 -47 554q-19 31 -62 31h-363v-765q0 -122 52 -176.5
t174 -54.5q162 0 215 134q31 79 31 277z" />
    <glyph glyph-name="uni05E2" unicode="&#x5e2;" horiz-adv-x="1264" 
d="M1124 846q0 -361 -130 -579q-161 -267 -497 -267h-342q-74 0 -74 61v90q0 71 73 71h130v928q0 57 -57 57h-84q-63 0 -63 73v77q0 69 47 71q19 1 307 1q64 0 84 -43q13 -27 13 -102v-1062q346 0 346 606v305q0 74 -77 74h-99q-71 0 -71 73v74q0 75 60 75h257q95 0 141 -86
q36 -67 36 -171v-326z" />
    <glyph glyph-name="uni05E3" unicode="&#x5e3;" horiz-adv-x="1343" 
d="M1306 -238q0 -66 -72 -66h-231q-47 0 -76 31t-29 78v1326q0 76 -76 76h-366q-71 0 -71 -66v-405q0 -69 71 -69h199q75 0 75 -68v-90q0 -69 -75 -69h-322q-193 0 -193 177v598q0 145 108 193q47 21 151 21h550q194 0 194 -210v-1235q0 -60 52 -60h39q72 0 72 -69v-93z" />
    <glyph glyph-name="uni05E4" unicode="&#x5e4;" horiz-adv-x="1408" 
d="M1208 195q0 -196 -194 -196h-766q-68 0 -68 52v100q0 71 72 71h607q58 0 78 14q24 17 24 71v812q0 88 -67 88h-388q-79 0 -79 -58v-340q0 -58 78 -58h201q61 0 61 -55v-115q0 -57 -61 -57h-331q-195 0 -195 224v439q0 128 39 182q43 60 150 60h657q111 0 152 -68
q30 -52 30 -174v-992z" />
    <glyph glyph-name="uni05E5" unicode="&#x5e5;" horiz-adv-x="1179" 
d="M1124 1248q0 -257 -197 -461q-180 -186 -442 -256v-530q0 -81 52 -81h77q72 0 72 -88v-78q0 -62 -89 -62h-260q-97 0 -97 98v1366q0 51 -41 51h-69q-63 0 -63 72v85q0 47 43 60q19 5 83 5h199q52 0 72.5 -18.5t20.5 -69.5v-582q138 52 241 145q127 115 127 240
q0 63 -64 63h-75q-57 0 -57 52v103q0 67 60 67h317q90 0 90 -122v-59z" />
    <glyph glyph-name="uni05E6" unicode="&#x5e6;" horiz-adv-x="1166" 
d="M1081 1239q0 -330 -311 -536q251 -199 251 -440q0 -218 -90 -249q-39 -14 -106 -14h-718q-52 0 -52 41v128q0 53 72 53h587q50 0 50 44q0 91 -68 179q-38 49 -140 139q-163 144 -222 233q-81 125 -92 302q-5 88 -56 88h-70q-66 0 -66 68v99q0 51 50 54q15 1 241 1
q84 0 109 -60q11 -27 17 -137q8 -136 31 -207q32 -101 116 -170q78 56 142 138q80 100 80 176q0 38 -46 38h-79q-68 0 -68 68v97q0 57 80 57h272q86 0 86 -121v-69z" />
    <glyph glyph-name="uni05E7" unicode="&#x5e7;" horiz-adv-x="1336" 
d="M1211 1004q0 -161 -50 -277q-41 -92 -155 -236q-143 -180 -143 -233q0 -36 51 -36h72q67 0 67 -60v-104q0 -58 -52 -58h-328q-78 0 -78 69v80q0 79 28 173q30 100 75 158l84 108q108 139 136 191q53 100 53 225q0 203 -138 203h-563q-70 0 -70 63v82q0 73 55 76
q19 1 248 1h389q125 0 173 -19q74 -29 111 -125q35 -90 35 -197v-84zM477 -235q0 -72 -72 -72h-101q-72 0 -72 87v1152q0 112 87 112h66q56 0 75 -28q17 -23 17 -82v-1169z" />
    <glyph glyph-name="uni05E8" unicode="&#x5e8;" horiz-adv-x="1200" 
d="M1000 94q0 -95 -83 -95h-87q-77 0 -77 95v954q0 159 -124 159h-538q-66 0 -66 62v87q0 55 32 67q15 6 127 6h623q99 0 150 -82q43 -68 43 -173v-1080z" />
    <glyph glyph-name="uni05E9" unicode="&#x5e9;" horiz-adv-x="1743" 
d="M1548 319q0 -156 -112 -242q-101 -77 -262 -77h-639q-154 0 -247 87.5t-93 240.5v1034q0 67 71 67h254q49 0 49 -49v-122q0 -51 -52 -51h-37q-40 0 -40 -69v-793q0 -123 120 -123h188v1149q0 58 54 58h154q39 0 39 -47v-1160h187q52 0 85.5 31t33.5 83v818q0 54 -34 54
h-44q-49 0 -49 70v98q0 53 63 53h235q76 0 76 -76v-1034z" />
    <glyph glyph-name="uni05EA" unicode="&#x5ea;" horiz-adv-x="1530" 
d="M1335 68q0 -37 -25.5 -66.5t-62.5 -29.5h-59q-100 0 -100 98v1008q0 129 -110 129h-449v-1039q0 -68 -36 -115q-40 -53 -105 -53h-241q-67 0 -67 71v80q0 70 55 70h101q46 0 46 45v941h-125q-74 0 -74 67v96q0 44 44 55q18 4 193 4h705q310 0 310 -322v-1039z" />
    <glyph glyph-name="uni05F0" unicode="&#x5f0;" horiz-adv-x="1320" 
d="M536 73q0 -73 -71 -73h-89q-87 0 -87 97v1046q0 64 -50 64h-128q-61 0 -61 71v85q0 50 54 62q18 4 94 4h267q29 0 50 -20.5t21 -49.5v-1286zM1121 73q0 -73 -71 -73h-89q-87 0 -87 97v1046q0 64 -50 64h-128q-61 0 -61 71v85q0 50 54 62q18 4 94 4h267q29 0 50 -20.5
t21 -49.5v-1286z" />
    <glyph glyph-name="uni05F1" unicode="&#x5f1;" horiz-adv-x="1380" 
d="M601 809q0 -76 -68 -76h-95q-83 0 -83 89v334q0 51 -48 51h-179q-78 0 -78 81v76q0 19 16 39t34 24q15 2 139 2h218q144 0 144 -155v-465zM1178 73q0 -73 -71 -73h-89q-87 0 -87 97v1046q0 64 -50 64h-128q-61 0 -61 71v85q0 50 54 62q18 4 94 4h267q29 0 50 -20.5
t21 -49.5v-1286z" />
    <glyph glyph-name="uni05F2" unicode="&#x5f2;" horiz-adv-x="1440" 
d="M601 809q0 -76 -68 -76h-95q-83 0 -83 89v334q0 51 -48 51h-179q-78 0 -78 81v76q0 19 16 39t34 24q15 2 139 2h218q144 0 144 -155v-465zM1244 809q0 -76 -68 -76h-95q-83 0 -83 89v334q0 51 -48 51h-179q-78 0 -78 81v76q0 19 16 39t34 24q15 2 139 2h218
q144 0 144 -155v-465z" />
    <glyph glyph-name="uni05F3" unicode="&#x5f3;" horiz-adv-x="640" 
d="M594 1344q0 -32 -20 -65l-300 -493q-46 -76 -115 -76q-86 0 -86 73q0 15 5 28l194 514q26 68 71 88q33 15 116 15q135 0 135 -84z" />
    <glyph glyph-name="uni05F4" unicode="&#x5f4;" horiz-adv-x="1067" 
d="M1022 1342q0 -31 -20 -64l-300 -493q-47 -77 -115 -77q-86 0 -86 74q0 14 5 27l195 515q26 68 71 88q32 15 116 15q134 0 134 -85zM589 1344q0 -32 -20 -65l-300 -493q-46 -76 -115 -76q-86 0 -86 73q0 15 5 28l194 514q26 68 71 88q33 15 116 15q135 0 135 -84z" />
    <glyph glyph-name="uni200E" unicode="&#x200e;" horiz-adv-x="831" 
d="M768 918l-336 -312v221h-143v-827h-176v1004h319v225z" />
    <glyph glyph-name="uni200F" unicode="&#x200f;" horiz-adv-x="831" 
d="M719 0h-176v827h-144v-221l-336 312l336 311v-225h320v-1004z" />
    <glyph glyph-name="endash" unicode="&#x2013;" horiz-adv-x="1024" 
d="M1036 469h-1048v242h1048v-242z" />
    <glyph glyph-name="emdash" unicode="&#x2014;" horiz-adv-x="2048" 
d="M2060 469h-2072v242h2072v-242z" />
    <glyph glyph-name="quoteleft" unicode="&#x2018;" horiz-adv-x="573" 
d="M419 947h-252v139q0 238 142 422l98 -77q-61 -88 -89 -197h101v-287z" />
    <glyph glyph-name="quoteright" unicode="&#x2019;" horiz-adv-x="573" 
d="M407 1370q0 -237 -142 -423l-98 77q60 88 89 198h-101v286h252v-138z" />
    <glyph glyph-name="quotesinglbase" unicode="&#x201a;" horiz-adv-x="573" 
d="M407 148q0 -238 -142 -422l-98 76q61 91 89 198h-101v286h252v-138z" />
    <glyph glyph-name="quotedblleft" unicode="&#x201c;" horiz-adv-x="983" 
d="M823 947h-252v139q0 240 142 422l98 -77q-61 -88 -89 -197h101v-287zM415 947h-252v139q0 238 142 422l98 -77q-61 -88 -89 -197h101v-287z" />
    <glyph glyph-name="quotedblright" unicode="&#x201d;" horiz-adv-x="983" 
d="M820 1370q0 -238 -143 -423l-97 77q61 89 88 198h-100v286h252v-138zM412 1370q0 -237 -142 -423l-98 77q60 88 89 198h-101v286h252v-138z" />
    <glyph glyph-name="quotedblbase" unicode="&#x201e;" horiz-adv-x="983" 
d="M820 148q0 -239 -143 -422l-97 76q62 92 88 198h-100v286h252v-138zM412 148q0 -238 -142 -422l-98 76q61 91 89 198h-101v286h252v-138z" />
    <glyph glyph-name="dagger" unicode="&#x2020;" horiz-adv-x="1147" 
d="M1114 738l-453 55l48 -1191h-267l50 1191l-452 -55v271l452 -49l-50 548h267l-48 -548l453 49v-271z" />
    <glyph glyph-name="daggerdbl" unicode="&#x2021;" horiz-adv-x="1147" 
d="M1111 8l-454 53l51 -459h-269l49 459l-449 -53v274l449 -55l-49 321l49 324l-449 -53v269l449 -48l-49 468h269l-51 -468l454 48v-269l-454 53l51 -324l-51 -321l454 55v-274z" />
    <glyph glyph-name="bullet" unicode="&#x2022;" horiz-adv-x="1229" 
d="M921 746q0 -128 -89.5 -218t-217.5 -90t-217.5 90t-89.5 218t89.5 217.5t217.5 89.5t217.5 -89.5t89.5 -217.5z" />
    <glyph glyph-name="ellipsis" unicode="&#x2026;" horiz-adv-x="2048" 
d="M1863 129q0 -65 -46 -111t-111 -46t-111 46t-46 111t46 110.5t111 45.5t111 -45.5t46 -110.5zM1180 129q0 -65 -46 -111t-111 -46t-110.5 46t-45.5 111t45.5 110.5t110.5 45.5t111 -45.5t46 -110.5zM498 129q0 -65 -46 -111t-111 -46t-111 46t-46 111t46 110.5t111 45.5
t111 -45.5t46 -110.5z" />
    <glyph glyph-name="perthousand" unicode="&#x2030;" horiz-adv-x="2621" 
d="M2580 311q0 -146 -102.5 -248.5t-248.5 -102.5t-248.5 102.5t-102.5 248.5q0 147 102.5 249.5t248.5 102.5q147 0 249 -102.5t102 -249.5zM1718 311q0 -146 -102.5 -248.5t-248.5 -102.5t-248.5 102.5t-102.5 248.5q0 147 102 249.5t249 102.5q146 0 248.5 -102.5
t102.5 -249.5zM1553 1536l-1166 -1636h-202l997 1405q-180 -30 -315 -30q-69 0 -146 7q22 -70 22 -127q0 -147 -101 -248.5t-248 -101.5t-250 101t-103 248q0 200 176 305q83 49 165 49q61 0 171 -24q192 -42 340 -42q266 0 458 94h202zM2398 312q0 71 -49.5 120.5
t-120.5 49.5q-70 0 -120 -50t-50 -120t50 -120t120 -50q71 0 120.5 49.5t49.5 120.5zM1535 312q0 71 -49.5 120.5t-119.5 49.5q-71 0 -120.5 -49.5t-49.5 -120.5t49.5 -120.5t120.5 -49.5q70 0 119.5 49.5t49.5 120.5zM561 1157q0 70 -49 119t-120 49q-70 0 -119.5 -49
t-49.5 -119t49.5 -119.5t119.5 -49.5t119.5 49.5t49.5 119.5z" />
    <glyph glyph-name="guilsinglleft" unicode="&#x2039;" horiz-adv-x="491" 
d="M465 0h-255l-183 540l183 548h255l-185 -548z" />
    <glyph glyph-name="guilsinglright" unicode="&#x203a;" horiz-adv-x="491" 
d="M465 548l-183 -548h-255l185 548l-185 540h255z" />
    <glyph glyph-name="uni20AA" unicode="&#x20aa;" horiz-adv-x="1813" 
d="M1711 0h-1075v798h150v-645h775v1054h150v-1207zM1239 412h-150v645h-772v-1057h-151v1207h1073v-795z" />
    <glyph glyph-name="trademark" unicode="&#x2122;" horiz-adv-x="2048" 
d="M1905 631h-176v691l-275 -691h-88l-266 691v-691h-176v840h267l219 -540l230 540h265v-840zM809 1324h-262v-693h-182v693h-264v147h708v-147z" />
    <glyph glyph-name="uni05DA_uni05B0.ccmp" horiz-adv-x="1144" 
d="M1084 1270q0 -63 -59 -63h-116v-1228q0 -60 52 -60h66q46 0 46 -58v-112q0 -53 -55 -53h-270q-86 0 -86 120v1391h-565q-72 0 -72 72v76q0 59 38 69q18 5 203 5h757q61 0 61 -63v-96zM360 870q31 0 53 -22t22 -53q0 -32 -22 -53.5t-53 -21.5t-53 21.5t-22 53.5
q0 30 22 52.5t53 22.5zM360 616q31 0 53 -22t22 -53q0 -32 -22 -53.5t-53 -21.5t-53 21.5t-22 53.5q0 30 22 52.5t53 22.5z" />
    <glyph glyph-name="uni05DA_uni05B8.ccmp" horiz-adv-x="1144" 
d="M1084 1270q0 -63 -59 -63h-116v-1228q0 -60 52 -60h66q46 0 46 -58v-112q0 -53 -55 -53h-270q-86 0 -86 120v1391h-565q-72 0 -72 72v76q0 59 38 69q18 5 203 5h757q61 0 61 -63v-96zM169 844h372q13 0 13 -17v-67q0 -14 -13 -14h-136v-216q0 -12 -12 -12h-79
q-10 0 -10 13v215h-135q-14 0 -14 14v68q0 16 14 16z" />
    <glyph glyph-name="glyph206" horiz-adv-x="1085" 
d="M965 976q0 -172 -80 -302q-57 -94 -211 -236q-148 -137 -148 -188q0 -29 39 -29h132q75 0 75 -59v-105q0 -58 -63 -58h-418q-57 0 -57 75v78q0 140 82 259q51 74 190 202q109 100 156 181q59 102 59 229q0 184 -104 184h-495q-29 0 -50.5 19t-21.5 47v322q0 57 66 57h101
q61 0 61 -74v-98q0 -49 71 -55q-50 4 111 4h306q77 0 116.5 -32t60.5 -107q22 -79 22 -200v-114zM-144 1669q31 0 53 -22t22 -53q0 -32 -22 -53.5t-53 -21.5t-53 21.5t-22 53.5q0 30 22 52.5t53 22.5z" />
    <glyph glyph-name="glyph207" horiz-adv-x="1085" 
d="M965 976q0 -172 -80 -302q-57 -94 -211 -236q-148 -137 -148 -188q0 -29 39 -29h132q75 0 75 -59v-105q0 -58 -63 -58h-418q-57 0 -57 75v78q0 140 82 259q51 74 190 202q109 100 156 181q59 102 59 229q0 184 -104 184h-495q-29 0 -50.5 19t-21.5 47v322q0 57 66 57h101
q61 0 61 -74v-98q0 -49 71 -55q-50 4 111 4h306q77 0 116.5 -32t60.5 -107q22 -79 22 -200v-114zM-144 1669q31 0 53 -22t22 -53q0 -32 -22 -53.5t-53 -21.5t-53 21.5t-22 53.5q0 30 22 52.5t53 22.5zM255 908q31 0 53 -22t22 -53q0 -32 -22 -53.5t-53 -21.5t-53 21.5
t-22 53.5q0 30 22 52.5t53 22.5z" />
    <glyph glyph-name="uniFB20" unicode="&#xfb20;" horiz-adv-x="1264" 
d="M1124 846q0 -361 -130 -579q-161 -267 -497 -267h-342q-74 0 -74 61v90q0 71 73 71h130v928q0 57 -57 57h-84q-63 0 -63 73v77q0 69 47 71q19 1 307 1q64 0 84 -43q13 -27 13 -102v-1062q346 0 346 606v305q0 74 -77 74h-99q-71 0 -71 73v74q0 75 60 75h257q95 0 141 -86
q36 -67 36 -171v-326z" />
    <glyph glyph-name="uniFB2E" unicode="&#xfb2e;" horiz-adv-x="1288" 
d="M1168 1030q0 -152 -90 -253q-72 -81 -229 -151l299 -486q17 -28 17 -44q0 -22 -40 -50l-55 -38q-39 -27 -66 -27q-31 0 -53 35l-488 784q-105 -66 -105 -185v-343q0 -51 46 -51h85q72 0 72 -67v-101q0 -54 -76 -54h-288q-77 0 -77 71v562q0 235 225 363l-199 318
q-11 18 -11 40q0 30 20 42l94 58q28 17 49 17q30 0 52 -35l389 -630q125 64 159 123q31 54 31 199q0 42 -4 54q-8 26 -40 26h-111q-49 0 -49 50v131q0 38 55 43q-22 -2 84 -2h234q70 0 70 -90v-309zM449 -156h372q13 0 13 -17v-67q0 -14 -13 -14h-372q-14 0 -14 14v68
q0 16 14 16z" />
    <glyph glyph-name="uniFB2F" unicode="&#xfb2f;" horiz-adv-x="1288" 
d="M1168 1030q0 -152 -90 -253q-72 -81 -229 -151l299 -486q17 -28 17 -44q0 -22 -40 -50l-55 -38q-39 -27 -66 -27q-31 0 -53 35l-488 784q-105 -66 -105 -185v-343q0 -51 46 -51h85q72 0 72 -67v-101q0 -54 -76 -54h-288q-77 0 -77 71v562q0 235 225 363l-199 318
q-11 18 -11 40q0 30 20 42l94 58q28 17 49 17q30 0 52 -35l389 -630q125 64 159 123q31 54 31 199q0 42 -4 54q-8 26 -40 26h-111q-49 0 -49 50v131q0 38 55 43q-22 -2 84 -2h234q70 0 70 -90v-309zM449 -156h372q13 0 13 -17v-67q0 -14 -13 -14h-136v-216q0 -12 -12 -12
h-79q-10 0 -10 13v215h-135q-14 0 -14 14v68q0 16 14 16z" />
    <glyph glyph-name="uniFB30" unicode="&#xfb30;" horiz-adv-x="1288" 
d="M1168 1030q0 -152 -90 -253q-72 -81 -229 -151l299 -486q17 -28 17 -44q0 -22 -40 -50l-55 -38q-39 -27 -66 -27q-31 0 -53 35l-488 784q-105 -66 -105 -185v-343q0 -51 46 -51h85q72 0 72 -67v-101q0 -54 -76 -54h-288q-77 0 -77 71v562q0 235 225 363l-199 318
q-11 18 -11 40q0 30 20 42l94 58q28 17 49 17q30 0 52 -35l389 -630q125 64 159 123q31 54 31 199q0 42 -4 54q-8 26 -40 26h-111q-49 0 -49 50v131q0 38 55 43q-22 -2 84 -2h234q70 0 70 -90v-309zM525 459q31 0 53 -22t22 -53q0 -32 -22 -53.5t-53 -21.5t-53 21.5
t-22 53.5q0 30 22 52.5t53 22.5z" />
    <glyph glyph-name="uniFB43" unicode="&#xfb43;" horiz-adv-x="1408" 
d="M1306 -238q0 -66 -72 -66h-231q-47 0 -76 31t-29 78v1326q0 76 -76 76h-366q-71 0 -71 -66v-405q0 -69 71 -69h199q75 0 75 -68v-90q0 -69 -75 -69h-322q-193 0 -193 177v598q0 145 108 193q47 21 151 21h550q194 0 194 -210v-1235q0 -60 52 -60h39q72 0 72 -69v-93z
M645 1028q31 0 53 -22t22 -53q0 -32 -22 -53.5t-53 -21.5t-53 21.5t-22 53.5q0 30 22 52.5t53 22.5z" />
    <glyph glyph-name="uniFB4B" unicode="&#xfb4b;" horiz-adv-x="736" 
d="M536 73q0 -73 -71 -73h-89q-87 0 -87 97v1046q0 64 -50 64h-128q-61 0 -61 71v85q0 50 54 62q18 4 94 4h267q29 0 50 -20.5t21 -49.5v-1286zM455 1669q31 0 53 -22t22 -53q0 -32 -22 -53.5t-53 -21.5t-53 21.5t-22 53.5q0 30 22 52.5t53 22.5z" />
    <glyph glyph-name="uniFB4C" unicode="&#xfb4c;" horiz-adv-x="1246" 
d="M1196 63q0 -40 -14 -52t-55 -12h-1014q-78 0 -78 61v91q0 71 67 71h675v854q0 131 -128 131h-528q-55 0 -55 51v120q0 51 59 51h563q335 0 335 -312v-895h108q65 0 65 -56v-103zM700 1559q0 -14 -13 -14h-373q-13 0 -13 14v68q0 16 14 16h368q17 0 17 -17v-67z" />
    <glyph glyph-name="uniFB4D" unicode="&#xfb4d;" horiz-adv-x="1228" 
d="M1098 673q0 -287 -102 -460q-125 -214 -392 -214h-480q-89 0 -89 87v58q0 70 59 76q17 1 182 1h286q167 0 241 175q53 125 53 318q0 219 -51 331q-73 162 -263 162h-375q-84 0 -84 67v79q0 76 81 76h381q271 0 416 -171q137 -161 137 -437v-148zM700 1559q0 -14 -13 -14
h-373q-13 0 -13 14v68q0 16 14 16h368q17 0 17 -17v-67z" />
    <glyph glyph-name="uniFB4E" unicode="&#xfb4e;" horiz-adv-x="1408" 
d="M1208 195q0 -196 -194 -196h-766q-68 0 -68 52v100q0 71 72 71h607q58 0 78 14q24 17 24 71v812q0 88 -67 88h-388q-79 0 -79 -58v-340q0 -58 78 -58h201q61 0 61 -55v-115q0 -57 -61 -57h-331q-195 0 -195 224v439q0 128 39 182q43 60 150 60h657q111 0 152 -68
q30 -52 30 -174v-992zM900 1559q0 -14 -13 -14h-373q-13 0 -13 14v68q0 16 14 16h368q17 0 17 -17v-67z" />
    <glyph glyph-name="uniFB2A" unicode="&#xfb2a;" horiz-adv-x="1743" 
d="M1548 319q0 -156 -112 -242q-101 -77 -262 -77h-639q-154 0 -247 87.5t-93 240.5v1034q0 67 71 67h254q49 0 49 -49v-122q0 -51 -52 -51h-37q-40 0 -40 -69v-793q0 -123 120 -123h188v1149q0 58 54 58h154q39 0 39 -47v-1160h187q52 0 85.5 31t33.5 83v818q0 54 -34 54
h-44q-49 0 -49 70v98q0 53 63 53h235q76 0 76 -76v-1034zM1371 1669q31 0 53 -22t22 -53q0 -32 -22 -53.5t-53 -21.5t-53 21.5t-22 53.5q0 30 22 52.5t53 22.5z" />
    <glyph glyph-name="uniFB2B" unicode="&#xfb2b;" horiz-adv-x="1743" 
d="M1548 319q0 -156 -112 -242q-101 -77 -262 -77h-639q-154 0 -247 87.5t-93 240.5v1034q0 67 71 67h254q49 0 49 -49v-122q0 -51 -52 -51h-37q-40 0 -40 -69v-793q0 -123 120 -123h188v1149q0 58 54 58h154q39 0 39 -47v-1160h187q52 0 85.5 31t33.5 83v818q0 54 -34 54
h-44q-49 0 -49 70v98q0 53 63 53h235q76 0 76 -76v-1034zM381 1669q31 0 53 -22t22 -53q0 -32 -22 -53.5t-53 -21.5t-53 21.5t-22 53.5q0 30 22 52.5t53 22.5z" />
    <glyph glyph-name="uniFB2C" unicode="&#xfb2c;" horiz-adv-x="1743" 
d="M1548 319q0 -156 -112 -242q-101 -77 -262 -77h-639q-154 0 -247 87.5t-93 240.5v1034q0 67 71 67h254q49 0 49 -49v-122q0 -51 -52 -51h-37q-40 0 -40 -69v-793q0 -123 120 -123h188v1149q0 58 54 58h154q39 0 39 -47v-1160h187q52 0 85.5 31t33.5 83v818q0 54 -34 54
h-44q-49 0 -49 70v98q0 53 63 53h235q76 0 76 -76v-1034zM1371 1669q31 0 53 -22t22 -53q0 -32 -22 -53.5t-53 -21.5t-53 21.5t-22 53.5q0 30 22 52.5t53 22.5zM1155 808q31 0 53 -22t22 -53q0 -32 -22 -53.5t-53 -21.5t-53 21.5t-22 53.5q0 30 22 52.5t53 22.5z" />
    <glyph glyph-name="uniFB2D" unicode="&#xfb2d;" horiz-adv-x="1743" 
d="M1548 319q0 -156 -112 -242q-101 -77 -262 -77h-639q-154 0 -247 87.5t-93 240.5v1034q0 67 71 67h254q49 0 49 -49v-122q0 -51 -52 -51h-37q-40 0 -40 -69v-793q0 -123 120 -123h188v1149q0 58 54 58h154q39 0 39 -47v-1160h187q52 0 85.5 31t33.5 83v818q0 54 -34 54
h-44q-49 0 -49 70v98q0 53 63 53h235q76 0 76 -76v-1034zM381 1669q31 0 53 -22t22 -53q0 -32 -22 -53.5t-53 -21.5t-53 21.5t-22 53.5q0 30 22 52.5t53 22.5zM1155 808q31 0 53 -22t22 -53q0 -32 -22 -53.5t-53 -21.5t-53 21.5t-22 53.5q0 30 22 52.5t53 22.5z" />
    <glyph glyph-name="uniFB31" unicode="&#xfb31;" horiz-adv-x="1246" 
d="M1196 63q0 -40 -14 -52t-55 -12h-1014q-78 0 -78 61v91q0 71 67 71h675v854q0 131 -128 131h-528q-55 0 -55 51v120q0 51 59 51h563q335 0 335 -312v-895h108q65 0 65 -56v-103zM415 808q31 0 53 -22t22 -53q0 -32 -22 -53.5t-53 -21.5t-53 21.5t-22 53.5q0 30 22 52.5
t53 22.5z" />
    <glyph glyph-name="uniFB32" unicode="&#xfb32;" horiz-adv-x="1029" 
d="M829 57q0 -58 -68 -58h-108q-69 0 -69 58v322q-94 -136 -214 -241q-158 -138 -280 -138q-55 0 -55 60v132q0 47 96 100q453 252 453 603v255q0 57 -49 57h-213q-68 0 -68 50v119q0 49 52 52q15 1 151 1h237q75 0 105 -34t30 -111v-1227zM245 808q31 0 53 -22t22 -53
q0 -32 -22 -53.5t-53 -21.5t-53 21.5t-22 53.5q0 30 22 52.5t53 22.5z" />
    <glyph glyph-name="uniFB33" unicode="&#xfb33;" horiz-adv-x="1041" 
d="M981 1283q0 -76 -72 -76h-104v-1119q0 -89 -89 -89h-66q-90 0 -90 89v1119h-455q-80 0 -80 75v67q0 78 71 80h815q70 0 70 -81v-65zM270 808q31 0 53 -22t22 -53q0 -32 -22 -53.5t-53 -21.5t-53 21.5t-22 53.5q0 30 22 52.5t53 22.5z" />
    <glyph glyph-name="uniFB34" unicode="&#xfb34;" horiz-adv-x="1455" 
d="M1255 72q0 -73 -77 -73h-86q-84 0 -84 73v1050q0 85 -78 85h-681q-64 0 -64 59v105q0 47 36 55q17 3 188 3h689q74 0 115.5 -47.5t41.5 -122.5v-1187zM473 87q0 -87 -70 -87h-102q-75 0 -75 93v776q0 74 91 74h92q27 0 45.5 -23t18.5 -51v-782zM745 808q31 0 53 -22
t22 -53q0 -32 -22 -53.5t-53 -21.5t-53 21.5t-22 53.5q0 30 22 52.5t53 22.5z" />
    <glyph glyph-name="uniFB35" unicode="&#xfb35;" horiz-adv-x="777" 
d="M576 73q0 -73 -71 -73h-89q-87 0 -87 97v1046q0 64 -50 64h-128q-61 0 -61 71v85q0 50 54 62q18 4 94 4h267q29 0 50 -20.5t21 -49.5v-1286zM115 808q31 0 53 -22t22 -53q0 -32 -22 -53.5t-53 -21.5t-53 21.5t-22 53.5q0 30 22 52.5t53 22.5z" />
    <glyph glyph-name="uniFB36" unicode="&#xfb36;" horiz-adv-x="826" 
d="M774 1277q0 -70 -67 -70h-129v-1122q0 -85 -79 -85h-88q-80 0 -80 64v1143h-124q-67 0 -67 63v85q0 70 46 73q17 1 201 1h314q73 0 73 -78v-74zM115 808q31 0 53 -22t22 -53q0 -32 -22 -53.5t-53 -21.5t-53 21.5t-22 53.5q0 30 22 52.5t53 22.5z" />
    <glyph glyph-name="uniFB38" unicode="&#xfb38;" horiz-adv-x="1413" 
d="M1233 349q0 -191 -110 -275q-98 -74 -296 -74h-171q-212 0 -307 71q-109 82 -109 285v788q0 63 -42 63h-54q-46 0 -46 52v101q0 69 98 69h195q96 0 96 -106v-977q0 -124 162 -124h174q164 0 164 118v772q0 110 -91 110q-81 0 -81 -84v-127q0 -72 -101 -72q-115 0 -115 93
v135q0 288 315 288q319 0 319 -305v-801zM735 739q31 0 53 -22t22 -53q0 -32 -22 -53.5t-53 -21.5t-53 21.5t-22 53.5q0 30 22 52.5t53 22.5z" />
    <glyph glyph-name="uniFB39" unicode="&#xfb39;" horiz-adv-x="741" 
d="M611 809q0 -76 -68 -76h-95q-83 0 -83 89v334q0 51 -48 51h-179q-78 0 -78 81v76q0 19 16 39t34 24q15 2 139 2h218q144 0 144 -155v-465zM115 883q31 0 53 -22t22 -53q0 -32 -22 -53.5t-53 -21.5t-53 21.5t-22 53.5q0 30 22 52.5t53 22.5z" />
    <glyph glyph-name="uniFB3A" unicode="&#xfb3a;" horiz-adv-x="1144" 
d="M1084 1270q0 -63 -59 -63h-116v-1228q0 -60 52 -60h66q46 0 46 -58v-112q0 -53 -55 -53h-270q-86 0 -86 120v1391h-565q-72 0 -72 72v76q0 59 38 69q18 5 203 5h757q61 0 61 -63v-96zM300 808q31 0 53 -22t22 -53q0 -32 -22 -53.5t-53 -21.5t-53 21.5t-22 53.5
q0 30 22 52.5t53 22.5z" />
    <glyph glyph-name="uniFB3B" unicode="&#xfb3b;" horiz-adv-x="1228" 
d="M1098 673q0 -287 -102 -460q-125 -214 -392 -214h-480q-89 0 -89 87v58q0 70 59 76q17 1 182 1h286q167 0 241 175q53 125 53 318q0 219 -51 331q-73 162 -263 162h-375q-84 0 -84 67v79q0 76 81 76h381q271 0 416 -171q137 -161 137 -437v-148zM425 808q31 0 53 -22
t22 -53q0 -32 -22 -53.5t-53 -21.5t-53 21.5t-22 53.5q0 30 22 52.5t53 22.5z" />
    <glyph glyph-name="uniFB3C" unicode="&#xfb3c;" horiz-adv-x="1085" 
d="M965 976q0 -172 -80 -302q-57 -94 -211 -236q-148 -137 -148 -188q0 -29 39 -29h132q75 0 75 -59v-105q0 -58 -63 -58h-418q-57 0 -57 75v78q0 140 82 259q51 74 190 202q109 100 156 181q59 102 59 229q0 184 -104 184h-495q-29 0 -50.5 19t-21.5 47v322q0 57 66 57h101
q61 0 61 -74v-98q0 -49 71 -55q-50 4 111 4h306q77 0 116.5 -32t60.5 -107q22 -79 22 -200v-114zM255 908q31 0 53 -22t22 -53q0 -32 -22 -53.5t-53 -21.5t-53 21.5t-22 53.5q0 30 22 52.5t53 22.5z" />
    <glyph glyph-name="uniFB3E" unicode="&#xfb3e;" horiz-adv-x="1403" 
d="M1213 170q0 -171 -144 -171h-391q-75 0 -75 73v71q0 33 23 56t56 23h206q80 0 80 62v763q0 178 -147 178q-132 0 -237 -142q-97 -131 -97 -268v-729q0 -87 -72 -87h-109q-66 0 -66 64v1075q0 69 -57 69h-46q-67 0 -67 66v90q0 47 42 60q19 6 82 6h204q89 0 89 -92v-101
q145 218 360 218q177 0 275 -119q91 -111 91 -292v-873zM740 808q31 0 53 -22t22 -53q0 -32 -22 -53.5t-53 -21.5t-53 21.5t-22 53.5q0 30 22 52.5t53 22.5z" />
    <glyph glyph-name="uniFB40" unicode="&#xfb40;" horiz-adv-x="820" 
d="M620 132q0 -57 -31 -95t-87 -38h-398q-69 0 -69 66v92q0 64 54 64h237q49 0 49 57v870q0 58 -41 58h-147q-46 0 -63.5 15t-17.5 59v78q0 64 43 69q17 2 141 2h220q110 0 110 -125v-1172zM165 808q31 0 53 -22t22 -53q0 -32 -22 -53.5t-53 -21.5t-53 21.5t-22 53.5
q0 30 22 52.5t53 22.5z" />
    <glyph glyph-name="uniFB41" unicode="&#xfb41;" horiz-adv-x="1374" 
d="M1184 585q0 -320 -99 -449q-114 -150 -421 -150q-299 0 -392 186q-50 99 -50 249v786h-128q-44 0 -44 58v101q0 52 41 60q16 3 186 3h686q112 0 157 -89q27 -53 43 -191q21 -183 21 -388v-176zM939 622q0 476 -47 554q-19 31 -62 31h-363v-765q0 -122 52 -176.5
t174 -54.5q162 0 215 134q31 79 31 277zM715 808q31 0 53 -22t22 -53q0 -32 -22 -53.5t-53 -21.5t-53 21.5t-22 53.5q0 30 22 52.5t53 22.5z" />
    <glyph glyph-name="uniFB44" unicode="&#xfb44;" horiz-adv-x="1408" 
d="M1208 195q0 -196 -194 -196h-766q-68 0 -68 52v100q0 71 72 71h607q58 0 78 14q24 17 24 71v812q0 88 -67 88h-388q-79 0 -79 -58v-340q0 -58 78 -58h201q61 0 61 -55v-115q0 -57 -61 -57h-331q-195 0 -195 224v439q0 128 39 182q43 60 150 60h657q111 0 152 -68
q30 -52 30 -174v-992zM695 1028q31 0 53 -22t22 -53q0 -32 -22 -53.5t-53 -21.5t-53 21.5t-22 53.5q0 30 22 52.5t53 22.5z" />
    <glyph glyph-name="uniFB46" unicode="&#xfb46;" horiz-adv-x="1166" 
d="M1081 1239q0 -330 -311 -536q251 -199 251 -440q0 -218 -90 -249q-39 -14 -106 -14h-718q-52 0 -52 41v128q0 53 72 53h587q50 0 50 44q0 91 -68 179q-38 49 -140 139q-163 144 -222 233q-81 125 -92 302q-5 88 -56 88h-70q-66 0 -66 68v99q0 51 50 54q15 1 241 1
q84 0 109 -60q11 -27 17 -137q8 -136 31 -207q32 -101 116 -170q78 56 142 138q80 100 80 176q0 38 -46 38h-79q-68 0 -68 68v97q0 57 80 57h272q86 0 86 -121v-69zM175 659q31 0 53 -22t22 -53q0 -32 -22 -53.5t-53 -21.5t-53 21.5t-22 53.5q0 30 22 52.5t53 22.5z" />
    <glyph glyph-name="uniFB47" unicode="&#xfb47;" horiz-adv-x="1336" 
d="M1211 1004q0 -161 -50 -277q-41 -92 -155 -236q-143 -180 -143 -233q0 -36 51 -36h72q67 0 67 -60v-104q0 -58 -52 -58h-328q-78 0 -78 69v80q0 79 28 173q30 100 75 158l84 108q108 139 136 191q53 100 53 225q0 203 -138 203h-563q-70 0 -70 63v82q0 73 55 76
q19 1 248 1h389q125 0 173 -19q74 -29 111 -125q35 -90 35 -197v-84zM477 -235q0 -72 -72 -72h-101q-72 0 -72 87v1152q0 112 87 112h66q56 0 75 -28q17 -23 17 -82v-1169zM705 948q31 0 53 -22t22 -53q0 -32 -22 -53.5t-53 -21.5t-53 21.5t-22 53.5q0 30 22 52.5t53 22.5z
" />
    <glyph glyph-name="uniFB48" unicode="&#xfb48;" horiz-adv-x="1200" 
d="M1000 94q0 -95 -83 -95h-87q-77 0 -77 95v954q0 159 -124 159h-538q-66 0 -66 62v87q0 55 32 67q15 6 127 6h623q99 0 150 -82q43 -68 43 -173v-1080zM465 808q31 0 53 -22t22 -53q0 -32 -22 -53.5t-53 -21.5t-53 21.5t-22 53.5q0 30 22 52.5t53 22.5z" />
    <glyph glyph-name="uniFB49" unicode="&#xfb49;" horiz-adv-x="1743" 
d="M1548 319q0 -156 -112 -242q-101 -77 -262 -77h-639q-154 0 -247 87.5t-93 240.5v1034q0 67 71 67h254q49 0 49 -49v-122q0 -51 -52 -51h-37q-40 0 -40 -69v-793q0 -123 120 -123h188v1149q0 58 54 58h154q39 0 39 -47v-1160h187q52 0 85.5 31t33.5 83v818q0 54 -34 54
h-44q-49 0 -49 70v98q0 53 63 53h235q76 0 76 -76v-1034zM1155 808q31 0 53 -22t22 -53q0 -32 -22 -53.5t-53 -21.5t-53 21.5t-22 53.5q0 30 22 52.5t53 22.5z" />
    <glyph glyph-name="uniFB4A" unicode="&#xfb4a;" horiz-adv-x="1530" 
d="M1335 68q0 -37 -25.5 -66.5t-62.5 -29.5h-59q-100 0 -100 98v1008q0 129 -110 129h-449v-1039q0 -68 -36 -115q-40 -53 -105 -53h-241q-67 0 -67 71v80q0 70 55 70h101q46 0 46 45v941h-125q-74 0 -74 67v96q0 44 44 55q18 4 193 4h705q310 0 310 -322v-1039zM815 808
q31 0 53 -22t22 -53q0 -32 -22 -53.5t-53 -21.5t-53 21.5t-22 53.5q0 30 22 52.5t53 22.5z" />
    <glyph glyph-name="Euro" unicode="&#x20ac;" horiz-adv-x="1213" 
d="M873 913l-30 -157h-338v-25v-19v-15t0.5 -14.5t0.5 -17.5h313l-30 -157h-272q14 -91 40.5 -151t62 -96t77.5 -50.5t87 -14.5q51 0 97.5 17.5t80.5 51.5l122 -179q-51 -51 -129.5 -78t-166.5 -27q-95 0 -169 22t-130.5 60t-97 89t-68 109.5t-44 121.5t-25.5 125h-99
l30 157h60q-1 15 -1 20.5v20.5v24.5t1 25.5h-90l30 157h73q8 58 25 120.5t46 122t70.5 112.5t97.5 92.5t127.5 63t160.5 23.5q44 0 86.5 -6.5t81.5 -19t72.5 -31.5t59.5 -44l-120 -184q-34 34 -81.5 51t-98.5 17q-56 0 -100 -25.5t-77.5 -69t-56 -101t-34.5 -121.5h356z" />
    <glyph glyph-name="circumflex" unicode="&#x2c6;" horiz-adv-x="860" 
d="M592 1679l239 -392h-196l-205 219l-205 -219h-196l239 392h324z" />
    <glyph glyph-name="Scaron" unicode="&#x160;" horiz-adv-x="1065" 
d="M965 380q0 -190 -132 -306q-126 -111 -319 -111q-313 0 -473 319l235 142q106 -195 244 -195q64 0 114 37q56 40 56 102q0 65 -74 143q-29 31 -126 110q-181 148 -246 222q-134 151 -134 293q0 162 123 269q117 103 281 103q221 0 425 -237l-207 -183q-109 152 -222 152
q-46 0 -83 -24q-42 -28 -42 -72q0 -37 25 -70q35 -46 205 -189q163 -137 194 -169q156 -159 156 -336zM368 1587l-239 392h196l205 -219l205 219h196l-239 -392h-324z" />
    <glyph glyph-name="OE" unicode="&#x152;" horiz-adv-x="1829" 
d="M1736 1469v-272h-528v-267h525v-268h-525v-386h523v-276h-909q-161 0 -294.5 54.5t-229.5 152t-149 233.5t-53 298q0 99 23 191.5t66 173.5t104 148.5t136.5 116t165 75t188.5 26.5h957zM927 276v921h-100q-51 0 -104.5 -9.5t-104 -31.5t-95.5 -57t-79 -87t-53.5 -121
t-19.5 -158q0 -85 20 -152t53.5 -117.5t78.5 -86.5t94.5 -58.5t100.5 -32.5t98 -10h111z" />
    <glyph glyph-name="Zcaron" unicode="&#x17d;" horiz-adv-x="1024" 
d="M980 1471l-525 -1202h491v-269h-899l523 1194h-480v277h890zM388 1587l-239 392h196l205 -219l205 219h196l-239 -392h-324z" />
    <glyph glyph-name="tilde" unicode="&#x2dc;" horiz-adv-x="860" 
d="M847 1633q-3 -63 -16 -125t-43.5 -111t-82.5 -79.5t-133 -30.5q-36 0 -72 16.5t-70.5 36.5t-66 36.5t-59.5 16.5q-39 0 -63 -27.5t-24 -78.5h-204q0 58 15.5 119.5t50 112t89 83t132.5 32.5q38 0 74.5 -15t70 -33.5t63.5 -33.5t54 -15q42 0 59.5 22t23.5 74h202z" />
    <glyph glyph-name="scaron" unicode="&#x161;" horiz-adv-x="901" 
d="M824 311q0 -159 -119 -253q-109 -86 -273 -86q-238 0 -380 186l168 183q107 -125 227 -125q44 0 79 20q41 25 41 66q0 64 -119 123l-92 46q-264 132 -264 333q0 140 109 229q101 83 245 83q224 0 358 -180l-169 -169q-103 102 -187 102q-98 0 -98 -68q0 -42 98 -91
l100 -50q135 -67 195 -133q81 -89 81 -216zM288 1287l-239 392h196l205 -219l205 219h196l-239 -392h-324z" />
    <glyph glyph-name="oe" unicode="&#x153;" horiz-adv-x="2169" 
d="M2091 465h-870q10 -60 32.5 -106.5t64.5 -80.5q84 -66 208 -66q153 0 263 107l230 -108q-168 -239 -491 -239q-251 0 -415 158q-8 8 -15.5 16t-15.5 16q-59 -68 -141 -115q-132 -75 -291 -75q-238 0 -401 166q-164 167 -164 405q0 256 187 425q163 148 377 148
q153 0 289 -77q85 -48 145 -116q6 7 12 13.5t13 13.5q159 166 405 166q257 0 418 -164q84 -85 122.5 -191.5t37.5 -243.5v-52zM653 859q-132 0 -216 -92q-80 -89 -80 -223q0 -137 79 -225q82 -93 216 -93t217 93q40 44 60.5 100t20.5 119q0 73 -20 129.5t-61 101.5
q-81 90 -216 90zM1817 680q-29 95 -109 150t-182 55q-115 0 -200 -64q-53 -40 -100 -141h591z" />
    <glyph glyph-name="zcaron" unicode="&#x17e;" horiz-adv-x="942" 
d="M926 1088l-490 -857h462v-231h-882l492 857h-417v231h835zM348 1287l-239 392h196l205 -219l205 219h196l-239 -392h-324z" />
    <glyph glyph-name="Ydieresis" unicode="&#x178;" horiz-adv-x="1270" 
d="M1207 1471l-430 -834v-637h-282v637l-432 834h301l274 -528l272 528h297zM1017 1730q0 -60 -42 -102t-102 -42t-101.5 42t-41.5 102q0 59 42 101t101 42q60 0 102 -41.5t42 -101.5zM574 1730q0 -60 -42 -102t-102 -42t-101.5 42t-41.5 102q0 59 42 101t101 42
q60 0 102 -41.5t42 -101.5z" />
    <glyph glyph-name="Agrave" unicode="&#xc0;" horiz-adv-x="1515" 
d="M1466 0h-291l-115 303h-600l-120 -303h-291l567 1471h284zM955 576l-195 505l-196 -505h391zM943 1587h-196l-366 392h323z" />
    <glyph glyph-name="Aacute" unicode="&#xc1;" horiz-adv-x="1515" 
d="M1466 0h-291l-115 303h-600l-120 -303h-291l567 1471h284zM955 576l-195 505l-196 -505h391zM1123 1979l-366 -392h-196l239 392h323z" />
    <glyph glyph-name="Acircumflex" unicode="&#xc2;" horiz-adv-x="1515" 
d="M1466 0h-291l-115 303h-600l-120 -303h-291l567 1471h284zM955 576l-195 505l-196 -505h391zM938 1979l239 -392h-196l-205 219l-205 -219h-196l239 392h324z" />
    <glyph glyph-name="Atilde" unicode="&#xc3;" horiz-adv-x="1515" 
d="M1466 0h-291l-115 303h-600l-120 -303h-291l567 1471h284zM955 576l-195 505l-196 -505h391zM1183 1933q-3 -63 -16 -125t-43.5 -111t-82.5 -79.5t-133 -30.5q-36 0 -72 16.5t-70.5 36.5t-66 36.5t-59.5 16.5q-39 0 -63 -27.5t-24 -78.5h-204q0 58 15.5 119.5t50 112
t89 83t132.5 32.5q38 0 74.5 -15t70 -33.5t63.5 -33.5t54 -15q42 0 59.5 22t23.5 74h202z" />
    <glyph glyph-name="Adieresis" unicode="&#xc4;" horiz-adv-x="1515" 
d="M1466 0h-291l-115 303h-600l-120 -303h-291l567 1471h284zM955 576l-195 505l-196 -505h391zM1117 1730q0 -60 -42 -102t-102 -42t-101.5 42t-41.5 102q0 59 42 101t101 42q60 0 102 -41.5t42 -101.5zM674 1730q0 -60 -42 -102t-102 -42t-101.5 42t-41.5 102q0 59 42 101
t101 42q60 0 102 -41.5t42 -101.5z" />
    <glyph glyph-name="Aring" unicode="&#xc5;" horiz-adv-x="1515" 
d="M1466 0h-291l-115 303h-600l-120 -303h-291l567 1471h284zM955 576l-195 505l-196 -505h391zM780 1469q-49 0 -91 19t-72.5 50.5t-46.5 74.5t-16 91q0 46 17.5 86.5t49 71.5t73 49t86.5 18q48 0 89.5 -18.5t73 -50t49.5 -73.5t18 -89t-17.5 -89t-49 -72.5t-73.5 -49
t-90 -18.5zM781 1797q-19 0 -36.5 -8t-30.5 -21.5t-20.5 -31t-7.5 -36.5q0 -20 7.5 -38t20 -31.5t30 -21.5t37.5 -8t37.5 8t31 21t21 30.5t7.5 37.5q0 41 -28 70t-69 29z" />
    <glyph glyph-name="AE" unicode="&#xc6;" horiz-adv-x="1814" 
d="M751 1471h970v-272h-527v-271h527v-265h-527v-387h525v-276h-802v304h-433l-144 -304h-291zM913 1210l-305 -635h309v635h-4z" />
    <glyph glyph-name="Ccedilla" unicode="&#xc7;" horiz-adv-x="1597" 
d="M1520 1212l-196 -187q-200 211 -450 211q-212 0 -356 -143.5t-144 -355.5q0 -304 245 -440q117 -65 260 -65q135 0 245 56q92 48 200 155l190 -198q-152 -148 -289 -212q-152 -70 -350 -70q-343 0 -561.5 216t-218.5 559q0 450 385 666q185 104 399 104q387 0 641 -296z
M1103 -213q0 -96 -84 -151q-71 -46 -173 -46q-98 0 -222 46l36 129q72 -23 141 -23q101 0 101 71q0 59 -79 56l-56 -2l35 120h169l-12 -46q60 -13 100 -52q44 -44 44 -102z" />
    <glyph glyph-name="Egrave" unicode="&#xc8;" horiz-adv-x="1065" 
d="M972 0h-803v1471h803v-274h-525v-266h525v-269h-525v-387h525v-275zM747 1587h-196l-366 392h323z" />
    <glyph glyph-name="Eacute" unicode="&#xc9;" horiz-adv-x="1065" 
d="M972 0h-803v1471h803v-274h-525v-266h525v-269h-525v-387h525v-275zM967 1979l-366 -392h-196l239 392h323z" />
    <glyph glyph-name="Ecircumflex" unicode="&#xca;" horiz-adv-x="1065" 
d="M972 0h-803v1471h803v-274h-525v-266h525v-269h-525v-387h525v-275zM732 1979l239 -392h-196l-205 219l-205 -219h-196l239 392h324z" />
    <glyph glyph-name="Edieresis" unicode="&#xcb;" horiz-adv-x="1065" 
d="M972 0h-803v1471h803v-274h-525v-266h525v-269h-525v-387h525v-275zM957 1730q0 -60 -42 -102t-102 -42t-101.5 42t-41.5 102q0 59 42 101t101 42q60 0 102 -41.5t42 -101.5zM514 1730q0 -60 -42 -102t-102 -42t-101.5 42t-41.5 102q0 59 42 101t101 42q60 0 102 -41.5
t42 -101.5z" />
    <glyph glyph-name="Igrave" unicode="&#xcc;" horiz-adv-x="573" 
d="M426 0h-278v1471h278v-1471zM488 1587h-196l-366 392h323z" />
    <glyph glyph-name="Iacute" unicode="&#xcd;" horiz-adv-x="573" 
d="M426 0h-278v1471h278v-1471zM668 1979l-366 -392h-196l239 392h323z" />
    <glyph glyph-name="Icircumflex" unicode="&#xce;" horiz-adv-x="573" 
d="M426 0h-278v1471h278v-1471zM463 1979l239 -392h-196l-205 219l-205 -219h-196l239 392h324z" />
    <glyph glyph-name="Idieresis" unicode="&#xcf;" horiz-adv-x="573" 
d="M426 0h-278v1471h278v-1471zM654 1730q0 -60 -42 -102t-102 -42t-101.5 42t-41.5 102q0 59 42 101t101 42q60 0 102 -41.5t42 -101.5zM211 1730q0 -60 -42 -102t-102 -42t-101.5 42t-41.5 102q0 59 42 101t101 42q60 0 102 -41.5t42 -101.5z" />
    <glyph glyph-name="Eth" unicode="&#xd0;" horiz-adv-x="1434" 
d="M1336 715q0 -348 -212 -549q-121 -113 -288 -147q-98 -19 -330 -19h-337v645h-136v271h136v555h332q276 0 424 -57q194 -75 310 -281q101 -179 101 -418zM783 645h-335v-371h130q163 0 244 30q112 42 176 162q55 104 55 256q0 479 -510 479h-95v-285h335v-271z" />
    <glyph glyph-name="Ntilde" unicode="&#xd1;" horiz-adv-x="1515" 
d="M1348 0h-269l-630 965v-965h-280v1471h268l631 -968v968h280v-1471zM1167 1933q-3 -63 -16 -125t-43.5 -111t-82.5 -79.5t-133 -30.5q-36 0 -72 16.5t-70.5 36.5t-66 36.5t-59.5 16.5q-39 0 -63 -27.5t-24 -78.5h-204q0 58 15.5 119.5t50 112t89 83t132.5 32.5
q38 0 74.5 -15t70 -33.5t63.5 -33.5t54 -15q42 0 59.5 22t23.5 74h202z" />
    <glyph glyph-name="Ograve" unicode="&#xd2;" horiz-adv-x="1720" 
d="M1624 731q0 -321 -219 -544.5t-540 -223.5q-325 0 -547 224t-222 549q0 210 101 387t282 282q178 103 384 103q320 0 542 -229q219 -227 219 -548zM1344 733q0 208 -137 353q-140 148 -347 148q-212 0 -348 -147q-134 -143 -134 -356q0 -244 175 -386q136 -111 312 -111
q205 0 344 148q135 144 135 351zM1140 1587h-196l-366 392h323z" />
    <glyph glyph-name="Oacute" unicode="&#xd3;" horiz-adv-x="1720" 
d="M1624 731q0 -321 -219 -544.5t-540 -223.5q-325 0 -547 224t-222 549q0 210 101 387t282 282q178 103 384 103q320 0 542 -229q219 -227 219 -548zM1344 733q0 208 -137 353q-140 148 -347 148q-212 0 -348 -147q-134 -143 -134 -356q0 -244 175 -386q136 -111 312 -111
q205 0 344 148q135 144 135 351zM1220 1979l-366 -392h-196l239 392h323z" />
    <glyph glyph-name="Ocircumflex" unicode="&#xd4;" horiz-adv-x="1720" 
d="M1624 731q0 -321 -219 -544.5t-540 -223.5q-325 0 -547 224t-222 549q0 210 101 387t282 282q178 103 384 103q320 0 542 -229q219 -227 219 -548zM1344 733q0 208 -137 353q-140 148 -347 148q-212 0 -348 -147q-134 -143 -134 -356q0 -244 175 -386q136 -111 312 -111
q205 0 344 148q135 144 135 351zM1034 1979l239 -392h-196l-205 219l-205 -219h-196l239 392h324z" />
    <glyph glyph-name="Otilde" unicode="&#xd5;" horiz-adv-x="1720" 
d="M1624 731q0 -321 -219 -544.5t-540 -223.5q-325 0 -547 224t-222 549q0 210 101 387t282 282q178 103 384 103q320 0 542 -229q219 -227 219 -548zM1344 733q0 208 -137 353q-140 148 -347 148q-212 0 -348 -147q-134 -143 -134 -356q0 -244 175 -386q136 -111 312 -111
q205 0 344 148q135 144 135 351zM1280 1933q-3 -63 -16 -125t-43.5 -111t-82.5 -79.5t-133 -30.5q-36 0 -72 16.5t-70.5 36.5t-66 36.5t-59.5 16.5q-39 0 -63 -27.5t-24 -78.5h-204q0 58 15.5 119.5t50 112t89 83t132.5 32.5q38 0 74.5 -15t70 -33.5t63.5 -33.5t54 -15
q42 0 59.5 22t23.5 74h202z" />
    <glyph glyph-name="Odieresis" unicode="&#xd6;" horiz-adv-x="1720" 
d="M1624 731q0 -321 -219 -544.5t-540 -223.5q-325 0 -547 224t-222 549q0 210 101 387t282 282q178 103 384 103q320 0 542 -229q219 -227 219 -548zM1344 733q0 208 -137 353q-140 148 -347 148q-212 0 -348 -147q-134 -143 -134 -356q0 -244 175 -386q136 -111 312 -111
q205 0 344 148q135 144 135 351zM1217 1730q0 -60 -42 -102t-102 -42t-101.5 42t-41.5 102q0 59 42 101t101 42q60 0 102 -41.5t42 -101.5zM774 1730q0 -60 -42 -102t-102 -42t-101.5 42t-41.5 102q0 59 42 101t101 42q60 0 102 -41.5t42 -101.5z" />
    <glyph glyph-name="Oslash" unicode="&#xd8;" horiz-adv-x="1720" 
d="M1616 1469l-186 -218q194 -218 194 -520q0 -321 -219 -544.5t-540 -223.5q-242 0 -427 124l-203 -238l-156 152l197 231q-180 211 -180 504q0 210 101 387t282 282q178 103 384 103q224 0 400 -113l189 222zM1344 733q0 174 -96 304l-630 -738q112 -65 247 -65
q205 0 344 148q135 144 135 351zM860 1234q-212 0 -348 -147q-134 -143 -134 -356q0 -166 80 -284l624 734q-99 53 -222 53z" />
    <glyph glyph-name="Ugrave" unicode="&#xd9;" horiz-adv-x="1311" 
d="M1154 594q0 -182 -13 -252q-23 -127 -107 -222q-139 -157 -377 -157q-144 0 -263 64q-128 70 -185 194q-51 110 -51 373v877h281v-952q0 -98 12 -143q19 -75 81 -112q49 -31 119 -31q154 0 202 121q20 52 20 200v917h281v-877zM843 1587h-196l-366 392h323z" />
    <glyph glyph-name="Uacute" unicode="&#xda;" horiz-adv-x="1311" 
d="M1154 594q0 -182 -13 -252q-23 -127 -107 -222q-139 -157 -377 -157q-144 0 -263 64q-128 70 -185 194q-51 110 -51 373v877h281v-952q0 -98 12 -143q19 -75 81 -112q49 -31 119 -31q154 0 202 121q20 52 20 200v917h281v-877zM1063 1979l-366 -392h-196l239 392h323z
" />
    <glyph glyph-name="Ucircumflex" unicode="&#xdb;" horiz-adv-x="1311" 
d="M1154 594q0 -182 -13 -252q-23 -127 -107 -222q-139 -157 -377 -157q-144 0 -263 64q-128 70 -185 194q-51 110 -51 373v877h281v-952q0 -98 12 -143q19 -75 81 -112q49 -31 119 -31q154 0 202 121q20 52 20 200v917h281v-877zM808 1979l239 -392h-196l-205 219
l-205 -219h-196l239 392h324z" />
    <glyph glyph-name="Udieresis" unicode="&#xdc;" horiz-adv-x="1311" 
d="M1154 594q0 -182 -13 -252q-23 -127 -107 -222q-139 -157 -377 -157q-144 0 -263 64q-128 70 -185 194q-51 110 -51 373v877h281v-952q0 -98 12 -143q19 -75 81 -112q49 -31 119 -31q154 0 202 121q20 52 20 200v917h281v-877zM1037 1730q0 -60 -42 -102t-102 -42
t-101.5 42t-41.5 102q0 59 42 101t101 42q60 0 102 -41.5t42 -101.5zM594 1730q0 -60 -42 -102t-102 -42t-101.5 42t-41.5 102q0 59 42 101t101 42q60 0 102 -41.5t42 -101.5z" />
    <glyph glyph-name="Yacute" unicode="&#xdd;" horiz-adv-x="1270" 
d="M1207 1471l-430 -834v-637h-282v637l-432 834h301l274 -528l272 528h297zM1062 1979l-366 -392h-196l239 392h323z" />
    <glyph glyph-name="Thorn" unicode="&#xde;" horiz-adv-x="1153" 
d="M442 1471v-295h100q108 0 200.5 -21.5t160 -72t106 -132.5t38.5 -203q0 -122 -38.5 -207.5t-108 -139t-166 -78t-211.5 -24.5h-81v-298h-275v1471h275zM785 734q0 58 -17 92.5t-49 52.5t-77 23t-101 5h-99v-331h109q58 0 102 7t73.5 24.5t44 48t14.5 78.5z" />
    <glyph glyph-name="germandbls" unicode="&#xdf;" horiz-adv-x="1310" 
d="M108 0v959q0 133 42 240t117 182t177.5 115t223.5 40q63 0 124.5 -11t117 -33t103 -56t82 -79t54 -102.5t19.5 -127.5q0 -62 -16.5 -118.5t-53.5 -103t-96 -79t-144 -45.5v-5q94 -10 163 -42.5t114.5 -80.5t67.5 -107.5t22 -124.5q0 -93 -33.5 -174.5t-95 -142t-149 -96
t-194.5 -35.5q-129 0 -238 61v249q54 -31 114 -46.5t118 -15.5q48 0 86.5 12.5t66 39t42 67.5t14.5 97q0 68 -22.5 112.5t-59.5 70t-84 35.5t-96 10h-99v230h110q47 0 83.5 17.5t61.5 46.5t38 66t13 75q0 39 -14.5 76.5t-43 67t-71 47t-97.5 17.5q-63 0 -118 -23.5
t-95.5 -64.5t-63.5 -96.5t-23 -119.5v-1004h-267z" />
    <glyph glyph-name="agrave" unicode="&#xe0;" horiz-adv-x="1352" 
d="M1214 0h-272v115q-151 -143 -335 -143q-226 0 -376 174q-143 167 -143 396q0 235 136 399q145 175 375 175q197 0 343 -148v120h272v-1088zM955 546q0 137 -82 227.5t-218 90.5q-133 0 -216 -94q-79 -90 -79 -225q0 -134 80 -226q84 -97 216 -97q136 0 220 95
q79 91 79 229zM881 1287h-196l-366 392h323z" />
    <glyph glyph-name="aacute" unicode="&#xe1;" horiz-adv-x="1352" 
d="M1214 0h-272v115q-151 -143 -335 -143q-226 0 -376 174q-143 167 -143 396q0 235 136 399q145 175 375 175q197 0 343 -148v120h272v-1088zM955 546q0 137 -82 227.5t-218 90.5q-133 0 -216 -94q-79 -90 -79 -225q0 -134 80 -226q84 -97 216 -97q136 0 220 95
q79 91 79 229zM1062 1679l-366 -392h-196l239 392h323z" />
    <glyph glyph-name="acircumflex" unicode="&#xe2;" horiz-adv-x="1352" 
d="M1214 0h-272v115q-151 -143 -335 -143q-226 0 -376 174q-143 167 -143 396q0 235 136 399q145 175 375 175q197 0 343 -148v120h272v-1088zM955 546q0 137 -82 227.5t-218 90.5q-133 0 -216 -94q-79 -90 -79 -225q0 -134 80 -226q84 -97 216 -97q136 0 220 95
q79 91 79 229zM792 1679l239 -392h-196l-205 219l-205 -219h-196l239 392h324z" />
    <glyph glyph-name="atilde" unicode="&#xe3;" horiz-adv-x="1352" 
d="M1214 0h-272v115q-151 -143 -335 -143q-226 0 -376 174q-143 167 -143 396q0 235 136 399q145 175 375 175q197 0 343 -148v120h272v-1088zM955 546q0 137 -82 227.5t-218 90.5q-133 0 -216 -94q-79 -90 -79 -225q0 -134 80 -226q84 -97 216 -97q136 0 220 95
q79 91 79 229zM1051 1633q-3 -63 -16 -125t-43.5 -111t-82.5 -79.5t-133 -30.5q-36 0 -72 16.5t-70.5 36.5t-66 36.5t-59.5 16.5q-39 0 -63 -27.5t-24 -78.5h-204q0 58 15.5 119.5t50 112t89 83t132.5 32.5q38 0 74.5 -15t70 -33.5t63.5 -33.5t54 -15q42 0 59.5 22t23.5 74
h202z" />
    <glyph glyph-name="adieresis" unicode="&#xe4;" horiz-adv-x="1352" 
d="M1214 0h-272v115q-151 -143 -335 -143q-226 0 -376 174q-143 167 -143 396q0 235 136 399q145 175 375 175q197 0 343 -148v120h272v-1088zM955 546q0 137 -82 227.5t-218 90.5q-133 0 -216 -94q-79 -90 -79 -225q0 -134 80 -226q84 -97 216 -97q136 0 220 95
q79 91 79 229zM997 1430q0 -60 -42 -102t-102 -42t-101.5 42t-41.5 102q0 59 42 101t101 42q60 0 102 -41.5t42 -101.5zM554 1430q0 -60 -42 -102t-102 -42t-101.5 42t-41.5 102q0 59 42 101t101 42q60 0 102 -41.5t42 -101.5z" />
    <glyph glyph-name="aring" unicode="&#xe5;" horiz-adv-x="1352" 
d="M1214 0h-272v115q-151 -143 -335 -143q-226 0 -376 174q-143 167 -143 396q0 235 136 399q145 175 375 175q197 0 343 -148v120h272v-1088zM955 546q0 137 -82 227.5t-218 90.5q-133 0 -216 -94q-79 -90 -79 -225q0 -134 80 -226q84 -97 216 -97q136 0 220 95
q79 91 79 229zM630 1294q-49 0 -91 19t-72.5 50.5t-46.5 74.5t-16 91q0 46 17.5 86.5t49 71.5t73 49t86.5 18q48 0 89.5 -18.5t73 -50t49.5 -73.5t18 -89t-17.5 -89t-49 -72.5t-73.5 -49t-90 -18.5zM631 1622q-19 0 -36.5 -8t-30.5 -21.5t-20.5 -31t-7.5 -36.5
q0 -20 7.5 -38t20 -31.5t30 -21.5t37.5 -8t37.5 8t31 21t21 30.5t7.5 37.5q0 41 -28 70t-69 29z" />
    <glyph glyph-name="ae" unicode="&#xe6;" horiz-adv-x="2169" 
d="M2091 517v-52h-877q19 -119 104 -187q84 -66 208 -66q153 0 263 107l230 -108q-168 -239 -491 -239q-178 0 -314 80v-52h-272v115q-152 -143 -335 -143q-226 0 -376 174q-143 167 -143 396q0 236 136 399q145 175 375 175q198 0 343 -148v120h272v-52q128 80 299 80
q257 0 418 -164q83 -85 122 -198t39 -237h-1zM942 546q0 67 -19 125t-56 101t-90 67.5t-122 24.5q-134 0 -216 -94q-79 -89 -79 -225q0 -134 80 -226q84 -97 216 -97q69 0 122.5 25.5t90 69.5t55 103t18.5 126zM1817 680q-29 95 -109 150t-182 55q-115 0 -200 -64
q-53 -40 -100 -141h591z" />
    <glyph glyph-name="ccedilla" unicode="&#xe7;" horiz-adv-x="1311" 
d="M1203 868l-227 -125q-114 119 -273 119q-149 0 -244 -88q-98 -90 -98 -238q0 -143 94 -230q91 -85 236 -85q183 0 285 125l215 -147q-175 -227 -494 -227q-260 0 -432 153q-180 159 -180 415q0 160 79.5 292t220.5 208t316 76q331 0 502 -248zM923 -203q0 -96 -84 -151
q-71 -46 -173 -46q-98 0 -222 46l36 129q72 -23 141 -23q101 0 101 71q0 59 -79 56l-56 -2l35 120h169l-12 -46q60 -13 100 -52q44 -44 44 -102z" />
    <glyph glyph-name="egrave" unicode="&#xe8;" horiz-adv-x="1311" 
d="M1229 517l-1 -52h-877q20 -120 104 -186.5t208 -66.5q153 0 263 107l230 -108q-168 -239 -491 -239q-251 0 -414.5 158t-163.5 408q0 247 158.5 412.5t404.5 165.5q257 0 418 -164q166 -170 161 -435zM954 680q-28 95 -109 150t-182 55q-114 0 -200 -64
q-54 -40 -100 -141h591zM820 1287h-196l-366 392h323z" />
    <glyph glyph-name="eacute" unicode="&#xe9;" horiz-adv-x="1311" 
d="M1229 517l-1 -52h-877q20 -120 104 -186.5t208 -66.5q153 0 263 107l230 -108q-168 -239 -491 -239q-251 0 -414.5 158t-163.5 408q0 247 158.5 412.5t404.5 165.5q257 0 418 -164q166 -170 161 -435zM954 680q-28 95 -109 150t-182 55q-114 0 -200 -64
q-54 -40 -100 -141h591zM1000 1679l-366 -392h-196l239 392h323z" />
    <glyph glyph-name="ecircumflex" unicode="&#xea;" horiz-adv-x="1311" 
d="M1229 517l-1 -52h-877q20 -120 104 -186.5t208 -66.5q153 0 263 107l230 -108q-168 -239 -491 -239q-251 0 -414.5 158t-163.5 408q0 247 158.5 412.5t404.5 165.5q257 0 418 -164q166 -170 161 -435zM954 680q-28 95 -109 150t-182 55q-114 0 -200 -64
q-54 -40 -100 -141h591zM816 1679l239 -392h-196l-205 219l-205 -219h-196l239 392h324z" />
    <glyph glyph-name="edieresis" unicode="&#xeb;" horiz-adv-x="1311" 
d="M1229 517l-1 -52h-877q20 -120 104 -186.5t208 -66.5q153 0 263 107l230 -108q-168 -239 -491 -239q-251 0 -414.5 158t-163.5 408q0 247 158.5 412.5t404.5 165.5q257 0 418 -164q166 -170 161 -435zM954 680q-28 95 -109 150t-182 55q-114 0 -200 -64
q-54 -40 -100 -141h591zM1017 1430q0 -60 -42 -102t-102 -42t-101.5 42t-41.5 102q0 59 42 101t101 42q60 0 102 -41.5t42 -101.5zM574 1430q0 -60 -42 -102t-102 -42t-101.5 42t-41.5 102q0 59 42 101t101 42q60 0 102 -41.5t42 -101.5z" />
    <glyph glyph-name="igrave" unicode="&#xec;" horiz-adv-x="491" 
d="M382 0h-274v1088h274v-1088zM422 1287h-196l-366 392h323z" />
    <glyph glyph-name="iacute" unicode="&#xed;" horiz-adv-x="491" 
d="M382 0h-274v1088h274v-1088zM602 1679l-366 -392h-196l239 392h323z" />
    <glyph glyph-name="icircumflex" unicode="&#xee;" horiz-adv-x="491" 
d="M382 0h-274v1088h274v-1088zM413 1679l239 -392h-196l-205 219l-205 -219h-196l239 392h324z" />
    <glyph glyph-name="idieresis" unicode="&#xef;" horiz-adv-x="491" 
d="M382 0h-274v1088h274v-1088zM618 1430q0 -60 -42 -102t-102 -42t-101.5 42t-41.5 102q0 59 42 101t101 42q60 0 102 -41.5t42 -101.5zM175 1430q0 -60 -42 -102t-102 -42t-101.5 42t-41.5 102q0 59 42 101t101 42q60 0 102 -41.5t42 -101.5z" />
    <glyph glyph-name="eth" unicode="&#xf0;" horiz-adv-x="1293" 
d="M1051 1425l-180 -104q169 -142 253 -327.5t84 -422.5q0 -138 -43.5 -248.5t-120 -188.5t-179.5 -120t-223 -42t-222 39.5t-176.5 110.5t-116.5 170t-42 219q0 118 42.5 216.5t117 169t176.5 110t221 39.5q75 0 125 -18t82 -34q-29 49 -85.5 99t-125.5 94l-223 -128
l-62 110l157 91q-33 16 -64.5 29t-59.5 22l129 225q68 -31 129 -64t115 -69l230 133zM933 508q0 75 -25 128t-66 87t-93 50t-107 16q-47 0 -97 -15.5t-91.5 -49t-68.5 -87t-27 -129.5q0 -77 29 -131t72 -87.5t92.5 -49t90.5 -15.5q40 0 91 15.5t95 49t74.5 87.5t30.5 131z
" />
    <glyph glyph-name="ntilde" unicode="&#xf1;" horiz-adv-x="1229" 
d="M1103 0h-270v477q0 149 -5 189q-15 122 -73 168q-44 33 -108 33q-176 0 -225 -209q-12 -51 -12 -221v-437h-272v1088h272v-111q166 139 323 139q163 0 275 -113q95 -95 95 -284v-719zM1027 1633q-3 -63 -16 -125t-43.5 -111t-82.5 -79.5t-133 -30.5q-36 0 -72 16.5
t-70.5 36.5t-66 36.5t-59.5 16.5q-39 0 -63 -27.5t-24 -78.5h-204q0 58 15.5 119.5t50 112t89 83t132.5 32.5q38 0 74.5 -15t70 -33.5t63.5 -33.5t54 -15q42 0 59.5 22t23.5 74h202z" />
    <glyph glyph-name="ograve" unicode="&#xf2;" horiz-adv-x="1311" 
d="M1226 545q0 -154 -76 -288t-208.5 -209.5t-291.5 -75.5q-237 0 -401 166.5t-164 404.5q0 256 187 425q163 148 377 148q154 0 289.5 -76.5t211.5 -209t76 -285.5zM950 544q0 136 -81 225.5t-216 89.5q-132 0 -216 -92q-80 -89 -80 -223q0 -136 79 -225q82 -93 216 -93
t217 93q81 90 81 225zM820 1287h-196l-366 392h323z" />
    <glyph glyph-name="oacute" unicode="&#xf3;" horiz-adv-x="1311" 
d="M1226 545q0 -154 -76 -288t-208.5 -209.5t-291.5 -75.5q-237 0 -401 166.5t-164 404.5q0 256 187 425q163 148 377 148q154 0 289.5 -76.5t211.5 -209t76 -285.5zM950 544q0 136 -81 225.5t-216 89.5q-132 0 -216 -92q-80 -89 -80 -223q0 -136 79 -225q82 -93 216 -93
t217 93q81 90 81 225zM1000 1679l-366 -392h-196l239 392h323z" />
    <glyph glyph-name="ocircumflex" unicode="&#xf4;" horiz-adv-x="1311" 
d="M1226 545q0 -154 -76 -288t-208.5 -209.5t-291.5 -75.5q-237 0 -401 166.5t-164 404.5q0 256 187 425q163 148 377 148q154 0 289.5 -76.5t211.5 -209t76 -285.5zM950 544q0 136 -81 225.5t-216 89.5q-132 0 -216 -92q-80 -89 -80 -223q0 -136 79 -225q82 -93 216 -93
t217 93q81 90 81 225zM816 1679l239 -392h-196l-205 219l-205 -219h-196l239 392h324z" />
    <glyph glyph-name="otilde" unicode="&#xf5;" horiz-adv-x="1311" 
d="M1226 545q0 -154 -76 -288t-208.5 -209.5t-291.5 -75.5q-237 0 -401 166.5t-164 404.5q0 256 187 425q163 148 377 148q154 0 289.5 -76.5t211.5 -209t76 -285.5zM950 544q0 136 -81 225.5t-216 89.5q-132 0 -216 -92q-80 -89 -80 -223q0 -136 79 -225q82 -93 216 -93
t217 93q81 90 81 225zM1060 1633q-3 -63 -16 -125t-43.5 -111t-82.5 -79.5t-133 -30.5q-36 0 -72 16.5t-70.5 36.5t-66 36.5t-59.5 16.5q-39 0 -63 -27.5t-24 -78.5h-204q0 58 15.5 119.5t50 112t89 83t132.5 32.5q38 0 74.5 -15t70 -33.5t63.5 -33.5t54 -15q42 0 59.5 22
t23.5 74h202z" />
    <glyph glyph-name="odieresis" unicode="&#xf6;" horiz-adv-x="1311" 
d="M1226 545q0 -154 -76 -288t-208.5 -209.5t-291.5 -75.5q-237 0 -401 166.5t-164 404.5q0 256 187 425q163 148 377 148q154 0 289.5 -76.5t211.5 -209t76 -285.5zM950 544q0 136 -81 225.5t-216 89.5q-132 0 -216 -92q-80 -89 -80 -223q0 -136 79 -225q82 -93 216 -93
t217 93q81 90 81 225zM1017 1430q0 -60 -42 -102t-102 -42t-101.5 42t-41.5 102q0 59 42 101t101 42q60 0 102 -41.5t42 -101.5zM574 1430q0 -60 -42 -102t-102 -42t-101.5 42t-41.5 102q0 59 42 101t101 42q60 0 102 -41.5t42 -101.5z" />
    <glyph glyph-name="oslash" unicode="&#xf8;" horiz-adv-x="1311" 
d="M226 -123l-145 127l146 168q-132 156 -132 371q0 256 187 425q163 148 377 148q84 0 164 -20.5t146 -69.5l145 167l145 -127l-146 -168q26 -32 47 -68q76 -131 76 -285q0 -155 -76 -288q-77 -134 -209 -210q-132 -75 -291 -75q-160 0 -286 75zM663 859q-132 0 -216 -92
q-80 -89 -80 -223q0 -97 38 -167l393 453q-60 29 -135 29zM960 544q0 79 -29 145l-384 -443q54 -20 115 -20q134 0 217 93q81 90 81 225z" />
    <glyph glyph-name="ugrave" unicode="&#xf9;" horiz-adv-x="1229" 
d="M1093 627q0 -285 -45 -390q-114 -265 -434 -265q-349 0 -445 303q-32 101 -32 360v453h276v-524q0 -117 9 -166q18 -96 80 -139q46 -33 114 -33q139 0 186 128q17 47 17 201v533h274v-461zM747 1287h-196l-366 392h323z" />
    <glyph glyph-name="uacute" unicode="&#xfa;" horiz-adv-x="1229" 
d="M1093 627q0 -285 -45 -390q-114 -265 -434 -265q-349 0 -445 303q-32 101 -32 360v453h276v-524q0 -117 9 -166q18 -96 80 -139q46 -33 114 -33q139 0 186 128q17 47 17 201v533h274v-461zM987 1679l-366 -392h-196l239 392h323z" />
    <glyph glyph-name="ucircumflex" unicode="&#xfb;" horiz-adv-x="1229" 
d="M1093 627q0 -285 -45 -390q-114 -265 -434 -265q-349 0 -445 303q-32 101 -32 360v453h276v-524q0 -117 9 -166q18 -96 80 -139q46 -33 114 -33q139 0 186 128q17 47 17 201v533h274v-461zM782 1679l239 -392h-196l-205 219l-205 -219h-196l239 392h324z" />
    <glyph glyph-name="udieresis" unicode="&#xfc;" horiz-adv-x="1229" 
d="M1093 627q0 -285 -45 -390q-114 -265 -434 -265q-349 0 -445 303q-32 101 -32 360v453h276v-524q0 -117 9 -166q18 -96 80 -139q46 -33 114 -33q139 0 186 128q17 47 17 201v533h274v-461zM1002 1430q0 -60 -42 -102t-102 -42t-101.5 42t-41.5 102q0 59 42 101t101 42
q60 0 102 -41.5t42 -101.5zM559 1430q0 -60 -42 -102t-102 -42t-101.5 42t-41.5 102q0 59 42 101t101 42q60 0 102 -41.5t42 -101.5z" />
    <glyph glyph-name="yacute" unicode="&#xfd;" horiz-adv-x="1188" 
d="M1171 1088l-682 -1486h-282l224 479l-414 1007h279l283 -683l312 683h280zM1000 1679l-366 -392h-196l239 392h323z" />
    <glyph glyph-name="thorn" unicode="&#xfe;" horiz-adv-x="1352" 
d="M1264 542q0 -229 -143 -396q-150 -174 -376 -174q-185 0 -336 143v-513h-271v1906h271v-540q148 148 344 148q230 0 375 -175q136 -164 136 -399zM992 545q0 135 -80 225q-82 94 -216 94q-135 0 -219 -92q-80 -89 -80 -226q0 -138 79 -229q84 -95 220 -95q132 0 216 97
q80 92 80 226z" />
    <glyph glyph-name="ydieresis" unicode="&#xff;" horiz-adv-x="1188" 
d="M1171 1088l-682 -1486h-282l224 479l-414 1007h279l283 -683l312 683h280zM967 1430q0 -60 -42 -102t-102 -42t-101.5 42t-41.5 102q0 59 42 101t101 42q60 0 102 -41.5t42 -101.5zM524 1430q0 -60 -42 -102t-102 -42t-101.5 42t-41.5 102q0 59 42 101t101 42
q60 0 102 -41.5t42 -101.5z" />
    <glyph glyph-name="ring" unicode="&#x2da;" horiz-adv-x="860" 
d="M430 1294q-49 0 -91 19t-72.5 50.5t-46.5 74.5t-16 91q0 46 17.5 86.5t49 71.5t73 49t86.5 18q48 0 89.5 -18.5t73 -50t49.5 -73.5t18 -89t-17.5 -89t-49 -72.5t-73.5 -49t-90 -18.5zM431 1622q-19 0 -36.5 -8t-30.5 -21.5t-20.5 -31t-7.5 -36.5q0 -20 7.5 -38t20 -31.5
t30 -21.5t37.5 -8t37.5 8t31 21t21 30.5t7.5 37.5q0 41 -28 70t-69 29z" />
    <glyph glyph-name="caron" unicode="&#x2c7;" horiz-adv-x="860" 
d="M268 1287l-239 392h196l205 -219l205 219h196l-239 -392h-324z" />
    <glyph glyph-name="dotlessi" unicode="&#x131;" horiz-adv-x="491" 
d="M382 0h-274v1088h274v-1088z" />
    <glyph glyph-name="uni0591" unicode="&#x591;" 
d="M-35 -130h68q17 0 17 -15v-101q139 -37 139 -189v-85q0 -14 -15 -14h-68q-18 0 -18 14v70q0 114 -86 114q-92 0 -92 -114v-70q0 -14 -15 -14h-72q-14 0 -14 14v85q0 152 140 189v101q0 15 16 15z" />
    <glyph glyph-name="uni0592" unicode="&#x592;" 
d="M150 1666q31 0 53 -22t22 -53q0 -32 -22 -53.5t-53 -21.5t-53 21.5t-22 53.5q0 30 22 52.5t53 22.5zM-150 1666q31 0 53 -22t22 -53q0 -32 -22 -53.5t-53 -21.5t-53 21.5t-22 53.5q0 30 22 52.5t53 22.5zM0 1920q31 0 53 -22t22 -53q0 -32 -22 -53.5t-53 -21.5t-53 21.5
t-22 53.5q0 30 22 52.5t53 22.5z" />
    <glyph glyph-name="uni0593" unicode="&#x593;" 
d="M40 1920h77q10 0 13.5 -1t3.5 -3t-3.5 -3.5t-13.5 -5.5l-147 -63l-5 -2.5t-1 -1.5t1 -1.5l5 -2.5l147 -63q8 -3 12.5 -6t4.5 -7q0 -3 -5.5 -6.5t-11.5 -6.5l-149 -64q-4 -1 -4 -3q0 -1 4 -3l149 -66q9 -4 13 -7t4 -5t-3.5 -6t-13.5 -8l-156 -69h-70q-10 0 -16.5 0.5
t-6.5 2.5q0 3 6.5 6t16.5 7l143 64q2 1 2 2q0 2 -2 3l-143 63q-11 5 -17 9t-6 8q0 3 5 6.5t17 8.5l142 61q4 2 4 3t-4 3l-142 61q-11 5 -16.5 8.5t-5.5 7.5q0 3 6 7.5t16 8.5z" />
    <glyph glyph-name="uni0594" unicode="&#x594;" 
d="M75 1920q31 0 53 -22t22 -53q0 -32 -22 -53.5t-53 -21.5t-53 21.5t-22 53.5q0 30 22 52.5t53 22.5zM75 1666q31 0 53 -22t22 -53q0 -32 -22 -53.5t-53 -21.5t-53 21.5t-22 53.5q0 30 22 52.5t53 22.5z" />
    <glyph glyph-name="uni0595" unicode="&#x595;" 
d="M100 1920q31 0 53 -22t22 -53q0 -32 -22 -53.5t-53 -21.5t-53 21.5t-22 53.5q0 30 22 52.5t53 22.5zM100 1666q31 0 53 -22t22 -53q0 -32 -22 -53.5t-53 -21.5t-53 21.5t-22 53.5q0 30 22 52.5t53 22.5zM-160 1920h67q16 0 16 -14v-373q0 -17 -17 -17h-66q-15 0 -15 13
v378q0 13 15 13z" />
    <glyph glyph-name="uni0596" unicode="&#x596;" 
d="M-133 -130h67q15 0 15 -13v-91q0 -123 42 -163.5t145 -40.5q14 0 14 -16v-68q0 -14 -14 -14q-160 0 -222.5 71.5t-62.5 230.5v90q0 14 16 14z" />
    <glyph glyph-name="uni0597" unicode="&#x597;" 
d="M0 1920q6 1 13 -8l119 -155q5 -4 5 -11q1 -4 -5 -11l-120 -156q-6 -7 -12 -7t-12 7l-121 155q-5 6 -4 12q0 6 5 12l119 154q6 8 13 8z" />
    <glyph glyph-name="uni0598" unicode="&#x598;" 
d="M-118 1920q40 0 78 -32t69 -81q27 -38 49 -60t46 -22q51 0 51 70q0 57 -33 81q-7 3 -7 16q0 11 8.5 19.5t24.5 8.5q10 -1 20.5 -8t21.5 -22t19.5 -38.5t8.5 -56.5q0 -30 -9 -54t-25.5 -41t-38.5 -26.5t-47 -9.5q-40 0 -78 32t-69 81q-21 32 -44 57t-51 25q-51 0 -51 -70
q0 -57 33 -81q7 -3 7 -16q0 -11 -8.5 -19.5t-24.5 -8.5q-11 1 -21.5 8.5t-21 22.5t-19 38.5t-8.5 55.5q0 30 9 54t25.5 41t38 26.5t47.5 9.5z" />
    <glyph glyph-name="uni0599" unicode="&#x599;" 
d="M-285 1920q160 0 222.5 -71.5t62.5 -230.5v-90q0 -14 -16 -14h-67q-15 0 -15 13v91q0 122 -42 163t-145 41q-14 0 -14 16v68q0 14 14 14z" />
    <glyph glyph-name="uni059A" unicode="&#x59a;" 
d="M216 -130h100q8 0 8 -5t-2 -7l-187 -182q-5 -5 -5 -8t5 -8l185 -180q4 -4 4 -7q0 -7 -8 -7h-103q-12 0 -19 8l-191 185q-3 3 -3 9q1 6 3 9l191 185q7 8 22 8z" />
    <glyph glyph-name="uni059B" unicode="&#x59b;" 
d="M67 -130h67q16 0 16 -14v-90q0 -159 -62.5 -230.5t-222.5 -71.5q-14 0 -14 14v68q0 16 14 16q103 0 145 40.5t42 163.5v91q0 13 15 13zM-100 -193q31 0 53 -22t22 -53q0 -32 -22 -53.5t-53 -21.5t-53 21.5t-22 53.5q0 30 22 52.5t53 22.5z" />
    <glyph glyph-name="uni059C" unicode="&#x59c;" 
d="M136 1920q14 0 14 -14v-68q0 -16 -14 -16q-103 0 -145 -41t-42 -163v-91q0 -13 -15 -13h-67q-16 0 -16 14v90q0 159 62.5 230.5t222.5 71.5z" />
    <glyph glyph-name="uni059D" unicode="&#x59d;" 
d="M286 1920q14 0 14 -14v-68q0 -16 -14 -16q-103 0 -145 -40t-42 -164v-91q0 -13 -15 -13h-67q-16 0 -16 14v90q0 159 62.5 230.5t222.5 71.5z" />
    <glyph glyph-name="uni059E" unicode="&#x59e;" 
d="M-151 1516l-67 -2q-16 0 -16 14v90q0 159 57.5 230.5t164.5 71.5q14 0 14 -14v-68q0 -16 -14 -16q-57 0 -90.5 -40.5t-33.5 -163.5v-91q0 -13 -15 -11zM82 1514h-67q-16 0 -16 14v90q0 159 57.5 230.5t164.5 71.5q14 0 14 -14v-68q0 -16 -14 -16q-57 0 -90.5 -40.5
t-33.5 -163.5v-91q0 -13 -15 -13z" />
    <glyph glyph-name="uni059F" unicode="&#x59f;" 
d="M95 1523q-5 -5 -8.5 -8t-9.5 -3t-18.5 12.5t-12.5 18.5q0 7 7 15l93 88q-35 39 -35 101q0 73 50 123t124 50q71 0 121 -51t50 -122q0 -73 -49 -123t-122 -50q-63 0 -102 34zM172 1747q0 -49 32 -81t81 -32q48 0 79 32.5t31 80.5q0 45 -32.5 78.5t-77.5 33.5
q-50 0 -81.5 -31t-31.5 -81zM-183 1608q-39 -34 -102 -34q-73 0 -122 50t-49 123q0 71 50 122t121 51q74 0 124 -50t50 -123q0 -62 -35 -101l93 -88q7 -8 7 -15q0 -6 -12.5 -18.5t-18.5 -12.5t-9.5 3t-8.5 8zM-172 1747q0 50 -31.5 81t-81.5 31q-45 0 -77.5 -33.5
t-32.5 -78.5q0 -48 31 -80.5t79 -32.5q49 0 81 32t32 81z" />
    <glyph glyph-name="uni05A0" unicode="&#x5a0;" 
d="M49 1523q-5 -5 -8.5 -8t-9.5 -3t-18.5 12.5t-12.5 18.5q0 7 7 15l93 88q-35 39 -35 101q0 73 50 123t124 50q71 0 121 -51t50 -122q0 -73 -49 -123t-122 -50q-63 0 -102 34zM126 1747q0 -49 32 -81t81 -32q48 0 79 32.5t31 80.5q0 45 -32.5 78.5t-77.5 33.5
q-50 0 -81.5 -31t-31.5 -81z" />
    <glyph glyph-name="uni05A1" unicode="&#x5a1;" 
d="M-155 1920h72q15 0 15 -14v-184q136 0 136 114v70q0 14 18 14h68q15 0 15 -14v-85q0 -189 -237 -189v-101q0 -15 -17 -15h-68q-16 0 -16 15v375q0 14 14 14z" />
    <glyph glyph-name="uni05A2" unicode="&#x5a2;" 
d="M-177 -130h72q15 0 15 -14v-70q0 -114 92 -114q86 0 86 114v70q0 14 18 14h68q15 0 15 -14v-85q0 -152 -139 -189v-101q0 -15 -17 -15h-68q-16 0 -16 15v101q-140 37 -140 189v85q0 14 14 14z" />
    <glyph glyph-name="uni05A3" unicode="&#x5a3;" 
d="M91 -130h67q16 0 16 -14l-2 -360q0 -14 -13 -14h-319q-14 0 -14 14v68q0 16 14 16h236v277q0 13 15 13z" />
    <glyph glyph-name="uni05A4" unicode="&#x5a4;" 
d="M54 -130h100q8 0 8 -5t-2 -7l-187 -182q-5 -5 -5 -8t5 -8l185 -180q4 -4 4 -7q0 -7 -8 -7h-103q-12 0 -19 8l-191 185q-3 3 -3 9q1 6 3 9l191 185q7 8 22 8z" />
    <glyph glyph-name="uni05A5" unicode="&#x5a5;" 
d="M67 -130h67q16 0 16 -14v-90q0 -159 -62.5 -230.5t-222.5 -71.5q-14 0 -14 14v68q0 16 14 16q103 0 145 40.5t42 163.5v91q0 13 15 13z" />
    <glyph glyph-name="uni05A6" unicode="&#x5a6;" 
d="M152 -132l67 2q16 0 16 -14v-90q0 -159 -57.5 -230.5t-164.5 -71.5q-14 0 -14 14v68q0 16 14 16q57 0 90.5 40.5t33.5 163.5v91q0 13 15 11zM-81 -130h67q16 0 16 -14v-90q0 -159 -57.5 -230.5t-164.5 -71.5q-14 0 -14 14v68q0 16 14 16q57 0 90.5 40.5t33.5 163.5v91
q0 13 15 13z" />
    <glyph glyph-name="uni05A7" unicode="&#x5a7;" 
d="M-134 -279q-14 11 -14 30v51q0 21 14 23l269 45q13 0 13 -17v-67q0 -14 -13 -14l-129 -23q-13 -5 -6 -16l138 -115q10 -10 10 -27v-56q0 -18 -14 -21l-268 -48q-14 0 -14 14v68q0 16 14 16l129 24q10 3 4 13z" />
    <glyph glyph-name="uni05A8" unicode="&#x5a8;" 
d="M-135 1920q160 0 222.5 -71.5t62.5 -230.5v-90q0 -14 -16 -14h-67q-15 0 -15 13v91q0 122 -42 163t-145 41q-14 0 -14 16v68q0 14 14 14z" />
    <glyph glyph-name="uni05A9" unicode="&#x5a9;" 
d="M-137 1608q-39 -34 -102 -34q-73 0 -122 50t-49 123q0 71 50 122t121 51q74 0 124 -50t50 -123q0 -62 -35 -101l93 -88q7 -8 7 -15q0 -6 -12.5 -18.5t-18.5 -12.5t-9.5 3t-8.5 8zM-126 1747q0 50 -31.5 81t-81.5 31q-45 0 -77.5 -33.5t-32.5 -78.5q0 -48 31 -80.5
t79 -32.5q49 0 81 32t32 81z" />
    <glyph glyph-name="uni05AA" unicode="&#x5aa;" 
d="M-177 -130h72q15 0 15 -14v-70q0 -114 92 -114q86 0 86 114v70q0 14 18 14h68q15 0 15 -14v-85q0 -152 -139 -189v-101q0 -15 -17 -15h-68q-16 0 -16 15v101q-140 37 -140 189v85q0 14 14 14z" />
    <glyph glyph-name="uni05AB" unicode="&#x5ab;" 
d="M54 1920h100q8 0 8 -5t-2 -7l-187 -182q-5 -5 -5 -8t5 -8l185 -180q4 -4 4 -7q0 -7 -8 -7h-103q-12 0 -19 8l-191 185q-3 3 -3 9q1 6 3 9l191 185q7 8 22 8z" />
    <glyph glyph-name="uni05AC" unicode="&#x5ac;" 
d="M91 1920h67q16 0 16 -14l-2 -360q0 -14 -13 -14h-319q-14 0 -14 14v68q0 16 14 16h236v277q0 13 15 13z" />
    <glyph glyph-name="uni05AD" unicode="&#x5ad;" 
d="M16 -130h67q15 0 15 -13v-91q0 -123 42 -163.5t145 -40.5q14 0 14 -16v-68q0 -14 -14 -14q-160 0 -222.5 71.5t-62.5 230.5v90q0 14 16 14z" />
    <glyph glyph-name="uni05AE" unicode="&#x5ae;" 
d="M-356 1920q40 0 78 -32t69 -81q27 -38 49 -60t46 -22q51 0 51 70q0 57 -33 81q-7 3 -7 16q0 11 8.5 19.5t24.5 8.5q10 -1 20.5 -8t21.5 -22t19.5 -38.5t8.5 -56.5q0 -30 -9 -54t-25.5 -41t-38.5 -26.5t-47 -9.5q-40 0 -78 32t-69 81q-21 32 -44 57t-51 25q-51 0 -51 -70
q0 -57 33 -81q7 -3 7 -16q0 -11 -8.5 -19.5t-24.5 -8.5q-11 1 -21.5 8.5t-21 22.5t-19 38.5t-8.5 55.5q0 30 9 54t25.5 41t38 26.5t47.5 9.5z" />
    <glyph glyph-name="uni05AF" unicode="&#x5af;" 
d="M0 1920q50 0 87.5 -39.5t37.5 -86.5t-37.5 -86.5t-87.5 -39.5t-87.5 39.5t-37.5 86.5t37.5 86.5t87.5 39.5zM0 1866q-68 -4 -72 -72q4 -68 72 -73q68 5 72 73q-4 68 -72 72z" />
    <glyph glyph-name="uni05BA" unicode="&#x5ba;" 
d="M75 1669q31 0 53 -22t22 -53q0 -32 -22 -53.5t-53 -21.5t-53 21.5t-22 53.5q0 30 22 52.5t53 22.5z" />
    <glyph glyph-name="uni05C4" unicode="&#x5c4;" 
d="M381 1669q31 0 53 -22t22 -53q0 -32 -22 -53.5t-53 -21.5t-53 21.5t-22 53.5q0 30 22 52.5t53 22.5z" />
    <glyph glyph-name="uni05C5" unicode="&#x5c5;" 
d="M90 -209q0 -38 -26.5 -64.5t-64.5 -26.5t-64.5 26.5t-26.5 64.5t26.5 64.5t64.5 26.5t64.5 -26.5t26.5 -64.5z" />
    <glyph glyph-name="uni05C6" unicode="&#x5c6;" horiz-adv-x="820" 
d="M200 1304q0 125 110 125h330q14 0 31 -2q43 -5 43 -69v-78q0 -44 -17.5 -59t-63.5 -15h-147q-41 0 -41 -58v-870q0 -57 49 -57h237q54 0 54 -64v-92q0 -66 -69 -66h-398q-56 0 -87 38t-31 95v1172z" />
    <glyph glyph-name="uni05C7" unicode="&#x5c7;" 
d="M14 -156h372q13 0 13 -17v-67q0 -14 -13 -14h-136v-117q0 -14 0.5 -28.5t9.5 -29.5q20 -28 20 -53q0 -20 -15 -36t-47 -16h-39q-30 0 -45 16t-15 36q0 27 20 54q9 14 9.5 28.5t0.5 28.5v117h-135q-14 0 -14 14v68q0 16 14 16z" />
    <glyph glyph-name="uniFB21" unicode="&#xfb21;" horiz-adv-x="1588" 
d="M1425 132q22 -26 23 -41v-4q0 -22 -33 -51l-49 -45q-19 -18 -35.5 -27.5t-33.5 -9.5q-13 0 -26 8t-24 20l-716 865q-47 -20 -80 -48t-53.5 -59t-30 -63.5t-9.5 -61.5v-343q0 -51 46 -51h85q72 0 72 -67v-100q0 -54 -76 -54h-288q-77 0 -77 71v561q0 112 62.5 207
t201.5 185l-223 270q-14 17 -17 38v8q0 24 14 36l86 71q26 20 46 23l7 1q25 0 49 -29l583 -709q50 19 93.5 42.5t78 48.5t59.5 51.5t38 52.5q14 28 22.5 77t8.5 122q0 43 -4 54q-8 26 -40 26h-111q-49 0 -49 50v131q0 19 13.5 30t41.5 11h318q70 0 70 -90v-309
q0 -96 -29 -166t-81.5 -123.5t-126.5 -94.5t-164 -80z" />
    <glyph glyph-name="uniFB22" unicode="&#xfb22;" horiz-adv-x="1341" 
d="M1281 1283q0 -76 -72 -76h-104v-1119q0 -89 -89 -89h-66q-90 0 -90 89v1119h-755q-80 0 -80 75v67q0 78 71 80h1115q70 0 70 -81v-65z" />
    <glyph glyph-name="uniFB23" unicode="&#xfb23;" horiz-adv-x="1755" 
d="M1555 72q0 -73 -77 -73h-86q-84 0 -84 73v1050q0 85 -78 85h-981q-64 0 -64 59v105q0 47 36 55q17 3 38 3h1139q74 0 115.5 -47.5t41.5 -122.5v-1187zM473 87q0 -87 -70 -87h-102q-75 0 -75 93v776q0 74 91 74h92q27 0 45.5 -23t18.5 -51v-782z" />
    <glyph glyph-name="uniFB24" unicode="&#xfb24;" horiz-adv-x="1528" 
d="M1398 673q0 -287 -102 -460q-125 -214 -392 -214h-780q-89 0 -89 87v58q0 70 59 76q17 1 52 1h716q167 0 241 175q53 125 53 318q0 219 -51 331q-73 162 -263 162h-675q-84 0 -84 67v79q0 76 81 76h681q271 0 416 -171q137 -161 137 -437v-148z" />
    <glyph glyph-name="uniFB25" unicode="&#xfb25;" horiz-adv-x="1385" 
d="M1265 976q0 -172 -80 -302q-57 -94 -228 -236q-148 -137 -148 -188q0 -29 39 -29h132q75 0 75 -59v-105q0 -58 -63 -58h-391q-57 0 -57 75v78q0 140 82 259q51 74 180 202q109 100 156 181q59 102 59 229q0 184 -104 184h-795q-29 0 -50.5 19t-21.5 47v322q0 57 66 57
h101q61 0 61 -74v-98q0 -49 71 -51q-50 0 717 0q77 0 116.5 -32t60.5 -107q22 -79 22 -200v-114z" />
    <glyph glyph-name="uniFB26" unicode="&#xfb26;" horiz-adv-x="1705" 
d="M1505 183q0 -184 -129 -184h-1058q-78 0 -78 78v1130h-112q-55 0 -55 50v112q0 49 33 57q12 3 43 3h1197q159 0 159 -275v-971zM1260 315v755q0 137 -88 137h-685v-926q0 -60 61 -60h632q80 0 80 94z" />
    <glyph glyph-name="uniFB27" unicode="&#xfb27;" horiz-adv-x="1500" 
d="M1300 94q0 -95 -83 -95h-87q-77 0 -77 95v954q0 159 -124 159h-838q-66 0 -66 62v87q0 55 32 67q15 6 47 6h1003q99 0 150 -82q43 -68 43 -173v-1080z" />
    <glyph glyph-name="uniFB28" unicode="&#xfb28;" horiz-adv-x="1850" 
d="M1655 68q0 -37 -25.5 -66.5t-62.5 -29.5h-59q-100 0 -100 98v1008q0 129 -110 129h-769v-1039q0 -68 -36 -115q-40 -53 -105 -53h-241q-67 0 -67 71v80q0 70 55 70h101q46 0 46 45v941h-125q-74 0 -74 67v96q0 44 44 55q18 4 43 4h1175q310 0 310 -322v-1039z" />
    <glyph glyph-name="uniFB29" unicode="&#xfb29;" horiz-adv-x="1155" 
d="M1115 230h-1078v82h498v497h80v-497h500v-82z" />
    <glyph glyph-name="uni25CC" unicode="&#x25cc;" horiz-adv-x="1217" 
d="M980 918q0 -50 -48 -50q-52 0 -52 50t52 50q48 0 48 -50zM832 1016q0 -49 -48 -49q-52 0 -52 49q0 51 52 51q48 0 48 -51zM1079 770q0 -51 -51 -51q-49 0 -49 51q0 49 51 49q49 0 49 -49zM1115 596q0 -50 -48 -50q-52 0 -52 50t52 50q48 0 48 -50zM658 1053
q0 -51 -50 -51t-50 51q0 49 50 49t50 -49zM485 1016q0 -49 -51 -49q-49 0 -49 49q0 51 49 51q51 0 51 -51zM1079 422q0 -49 -51 -49q-49 0 -49 49q0 51 49 51q51 0 51 -51zM337 918q0 -50 -50 -50t-50 47q0 53 50 53t50 -50zM980 272q0 -49 -48 -49q-52 0 -52 49q0 51 52 51
q48 0 48 -51zM832 174q0 -48 -48 -48q-52 0 -52 48q0 52 52 52q48 0 48 -52zM238 770q0 -51 -48 -51q-52 0 -52 51q0 49 50 49t50 -49zM202 596q1 -50 -48 -50q-52 0 -52 50t52 50q49 0 48 -50zM658 141q0 -51 -50 -51t-50 51q0 49 50 49t50 -49zM238 422q0 -49 -50 -49
t-50 49q0 51 50 51t50 -51zM485 178q0 -52 -51 -52q-49 0 -49 48q0 52 49 52q51 0 51 -48zM337 272q0 -49 -50 -49t-50 49q0 51 50 51t50 -51z" />
    <glyph glyph-name="uni05B1_uni05BD.ccmp" 
d="M375 -130q31 0 53 -22t22 -53q0 -32 -22 -53.5t-53 -21.5t-53 21.5t-22 53.5q0 30 22 52.5t53 22.5zM75 -130q31 0 53 -22t22 -53q0 -32 -22 -53.5t-53 -21.5t-53 21.5t-22 53.5q0 30 22 52.5t53 22.5zM225 -384q31 0 53 -22t22 -53q0 -32 -22 -53.5t-53 -21.5t-53 21.5
t-22 53.5q0 30 22 52.5t53 22.5zM540 -130h67q16 0 16 -14v-373q0 -17 -17 -17h-66q-15 0 -15 13v378q0 13 15 13zM800 -130q31 0 53 -22t22 -53q0 -32 -22 -53.5t-53 -21.5t-53 21.5t-22 53.5q0 30 22 52.5t53 22.5zM800 -384q31 0 53 -22t22 -53q0 -32 -22 -53.5
t-53 -21.5t-53 21.5t-22 53.5q0 30 22 52.5t53 22.5z" />
    <glyph glyph-name="uni05B2_uni05BD.ccmp" 
d="M14 -156h372q13 0 13 -17v-67q0 -14 -13 -14h-372q-14 0 -14 14v68q0 16 14 16zM540 -130h67q16 0 16 -14v-373q0 -17 -17 -17h-66q-15 0 -15 13v378q0 13 15 13zM800 -130q31 0 53 -22t22 -53q0 -32 -22 -53.5t-53 -21.5t-53 21.5t-22 53.5q0 30 22 52.5t53 22.5z
M800 -384q31 0 53 -22t22 -53q0 -32 -22 -53.5t-53 -21.5t-53 21.5t-22 53.5q0 30 22 52.5t53 22.5z" />
    <glyph glyph-name="uni05B3_uni05BD.ccmp" 
d="M14 -156h372q13 0 13 -17v-67q0 -14 -13 -14h-136v-216q0 -12 -12 -12h-79q-10 0 -10 13v215h-135q-14 0 -14 14v68q0 16 14 16zM540 -130h67q16 0 16 -14v-373q0 -17 -17 -17h-66q-15 0 -15 13v378q0 13 15 13zM800 -130q31 0 53 -22t22 -53q0 -32 -22 -53.5t-53 -21.5
t-53 21.5t-22 53.5q0 30 22 52.5t53 22.5zM800 -384q31 0 53 -22t22 -53q0 -32 -22 -53.5t-53 -21.5t-53 21.5t-22 53.5q0 30 22 52.5t53 22.5z" />
    <glyph glyph-name="uniFB1D" unicode="&#xfb1d;" horiz-adv-x="731" 
d="M601 809q0 -76 -68 -76h-95q-83 0 -83 89v334q0 51 -48 51h-179q-78 0 -78 81v76q0 19 16 39t34 24q15 2 139 2h218q144 0 144 -155v-465zM475 530q31 0 53 -22t22 -53q0 -32 -22 -53.5t-53 -21.5t-53 21.5t-22 53.5q0 30 22 52.5t53 22.5z" />
    <glyph glyph-name="uniFB1E" unicode="&#xfb1e;" 
d="M-203 1772q53 0 53 -24q0 -19 10 -40.5t29 -43t44.5 -36t66.5 -14.5t67 14.5t44.5 36t28.5 43t10 40.5q0 24 53 24q48 0 48 -24q0 -43 -22.5 -84.5t-57.5 -75t-80 -53t-91 -19.5h1q-47 0 -91.5 19.5t-79.5 53t-58 75t-23 84.5q0 24 48 24z" />
    <glyph glyph-name="uniFB1F" unicode="&#xfb1f;" horiz-adv-x="1440" 
d="M601 809q0 -76 -68 -76h-95q-83 0 -83 89v334q0 51 -48 51h-179q-78 0 -78 81v76q0 19 16 39t34 24q15 2 139 2h218q144 0 144 -155v-465zM1244 809q0 -76 -68 -76h-95q-83 0 -83 89v334q0 51 -48 51h-179q-78 0 -78 81v76q0 19 16 39t34 24q15 2 139 2h218
q144 0 144 -155v-465zM386 544h829q29 0 29 -17v-67q0 -14 -29 -14h-829q-31 0 -31 14v68q0 16 31 16z" />
    <glyph glyph-name="uni034F" unicode="&#x34f;" 
 />
    <glyph glyph-name="uni2009" unicode="&#x2009;" horiz-adv-x="200" 
 />
    <glyph glyph-name="uni200A" unicode="&#x200a;" horiz-adv-x="100" 
 />
    <glyph glyph-name="uni200C" unicode="&#x200c;" horiz-adv-x="176" 
d="M0 1088h176v-1088h-176v1088z" />
    <glyph glyph-name="uni200D" unicode="&#x200d;" horiz-adv-x="176" 
d="M-142 1229l230 -214l231 214v-193l-143 -118l143 -119v-193l-143 133v-739h-176v738l-142 -132v193l142 119l-142 118v193z" />
    <glyph glyph-name="uniF301" unicode="&#xf301;" 
d="M-15 -130q31 0 53 -22t22 -53q0 -32 -22 -53.5t-53 -21.5t-53 21.5t-22 53.5q0 30 22 52.5t53 22.5z" />
    <glyph glyph-name="uni0307" unicode="&#x307;" 
d="M-555 1402q0 -48 -34 -82t-82 -34t-82 34t-34 82t34 82t82 34t82 -34t34 -82z" />
    <glyph glyph-name="uni0308" unicode="&#x308;" 
d="M-170 1430q0 -60 -42 -102t-102 -42t-101.5 42t-41.5 102q0 59 42 101t101 42q60 0 102 -41.5t42 -101.5zM-613 1430q0 -60 -42 -102t-102 -42t-101.5 42t-41.5 102q0 59 42 101t101 42q60 0 102 -41.5t42 -101.5z" />
    <glyph glyph-name="dotbelowcomb" unicode="&#x323;" 
d="M116 -603q0 -48 -34 -82t-82 -34t-82 34t-34 82t34 82t82 34t82 -34t34 -82z" />
    <glyph glyph-name="uni05D2_uni05BF.ccmp" horiz-adv-x="963" 
d="M829 57q0 -58 -68 -58h-108q-69 0 -69 58v322q-94 -136 -214 -241q-158 -138 -280 -138q-55 0 -55 60v132q0 47 96 100q453 252 453 603v255q0 57 -49 57h-213q-68 0 -68 50v119q0 49 52 52q15 1 151 1h237q75 0 105 -34t30 -111v-1227zM750 1559q0 -14 -13 -14h-373
q-13 0 -13 14v68q0 16 14 16h368q17 0 17 -17v-67z" />
    <glyph glyph-name="uni05D3_uni05BF.ccmp" horiz-adv-x="1004" 
d="M981 1283q0 -76 -72 -76h-104v-1119q0 -89 -89 -89h-66q-90 0 -90 89v1119h-455q-80 0 -80 75v67q0 78 71 80h815q70 0 70 -81v-65zM700 1559q0 -14 -13 -14h-373q-13 0 -13 14v68q0 16 14 16h368q17 0 17 -17v-67z" />
    <glyph glyph-name="uni05D4_uni05BF.ccmp" horiz-adv-x="1370" 
d="M1255 72q0 -73 -77 -73h-86q-84 0 -84 73v1050q0 85 -78 85h-681q-64 0 -64 59v105q0 47 36 55q17 3 188 3h689q74 0 115.5 -47.5t41.5 -122.5v-1187zM473 87q0 -87 -70 -87h-102q-75 0 -75 93v776q0 74 91 74h92q27 0 45.5 -23t18.5 -51v-782zM900 1559q0 -14 -13 -14
h-373q-13 0 -13 14v68q0 16 14 16h368q17 0 17 -17v-67z" />
    <glyph glyph-name="uni05EA_uni05BF.ccmp" horiz-adv-x="1473" 
d="M1335 68q0 -37 -25.5 -66.5t-62.5 -29.5h-59q-100 0 -100 98v1008q0 129 -110 129h-449v-1039q0 -68 -36 -115q-40 -53 -105 -53h-241q-67 0 -67 71v80q0 70 55 70h101q46 0 46 45v941h-125q-74 0 -74 67v96q0 44 44 55q18 4 193 4h705q310 0 310 -322v-1039zM900 1559
q0 -14 -13 -14h-373q-13 0 -13 14v68q0 16 14 16h368q17 0 17 -17v-67z" />
    <glyph glyph-name="uni05C4.ccmp" 
d="M28 1669q31 0 53 -22t22 -53q0 -32 -22 -53.5t-53 -21.5t-53 21.5t-22 53.5q0 30 22 52.5t53 22.5z" />
    <glyph glyph-name="uni0307_uni0307.ccmp" 
d="M208 1669q31 0 53 -22t22 -53q0 -32 -22 -53.5t-53 -21.5t-53 21.5t-22 53.5q0 30 22 52.5t53 22.5zM-151 1669q31 0 53 -22t22 -53q0 -32 -22 -53.5t-53 -21.5t-53 21.5t-22 53.5q0 30 22 52.5t53 22.5z" />
  </font>
</defs>
</svg>
